<svg id="Component_7_1" data-name="Component 7 – 1" xmlns="http://www.w3.org/2000/svg" width="495.217" height="354.933" viewBox="0 0 495.217 354.933">
  <path id="Path_500" data-name="Path 500" d="M854.439,478.814a2.168,2.168,0,0,0,1.745-3.681l-.121-.6.066-.139a5.823,5.823,0,0,1,10.728.539c1.558,4.308,3.6,8.646,3.938,13.141a17.228,17.228,0,0,1-.578,5.9,69.068,69.068,0,0,0,7.61-28.363,66.683,66.683,0,0,0-.067-7.448q-.2-3.049-.669-6.068a69.869,69.869,0,0,0-12.463-30.224,18.594,18.594,0,0,1-7.352-8.374,14.186,14.186,0,0,1-1.108-3.932c.374.067.755.115,1.129.158l.357.035.044,0a2.148,2.148,0,0,0,1.925-3.414l-.46-.622c-.232-.32-.471-.634-.7-.953a1.064,1.064,0,0,1-.076-.1c-.267-.365-.535-.723-.8-1.088a6.212,6.212,0,0,1,2.126-1.872c2.92-1.532,6.787-.2,8.72,2.47s2.16,6.291,1.3,9.47a24.9,24.9,0,0,1-3.8,7.509c.145.2.3.4.441.608a70.318,70.318,0,0,1,6.791,11.956,29.232,29.232,0,0,1,2.375-13.482c1.856-3.948,5.141-7.192,8.058-10.544a6,6,0,0,1,10.538,3.44q0,.077.009.155-.63.318-1.236.679a2.941,2.941,0,0,0,.936,5.4l.06.012a29.271,29.271,0,0,1-.974,4.335A30.133,30.133,0,0,1,877.058,441.9c-.246.112-.486.224-.732.33a71.776,71.776,0,0,1,3.014,18.342,68.1,68.1,0,0,1-.56,10.978l.025-.129a17.988,17.988,0,0,1,6.617-10.09c4.9-3.658,11.637-4.776,16.875-7.656a3.376,3.376,0,0,1,5.012,3.521l-.027.135a19.759,19.759,0,0,0-2.263.963q-.63.318-1.236.679a2.941,2.941,0,0,0,.936,5.4l.059.012.122.024a29.29,29.29,0,0,1-5.774,8.177,30.16,30.16,0,0,1-22.3,8.569h-.006a71.758,71.758,0,0,1-5.469,13.832l-17.2-.8c-.053-.194-.1-.394-.146-.588a19.563,19.563,0,0,0,4.773-.062c-1.2-1.625-2.406-3.263-3.609-4.888a1.076,1.076,0,0,1-.076-.1c-.61-.832-1.226-1.657-1.836-2.489h0a28.661,28.661,0,0,1,1.178-7.253Z" transform="translate(-453.669 -252.971)" fill="#f26927"/>
  <path id="Path_501" data-name="Path 501" d="M241.63,231.4a2.168,2.168,0,0,1-1.969-3.566l.084-.6-.074-.135a5.823,5.823,0,0,0-10.674,1.2c-1.289,4.4-3.054,8.852-3.118,13.359a17.227,17.227,0,0,0,.941,5.857,69.067,69.067,0,0,1-9.348-27.839,66.663,66.663,0,0,1-.393-7.438q.012-3.056.293-6.1A69.868,69.868,0,0,1,227.944,175.2a18.594,18.594,0,0,0,6.82-8.812,14.182,14.182,0,0,0,.863-3.993c-.369.09-.746.162-1.118.227l-.354.057-.044.007a2.148,2.148,0,0,1-2.133-3.289l.42-.649c.212-.333.431-.661.643-.995a1.07,1.07,0,0,0,.07-.1c.244-.38.489-.755.733-1.135a6.213,6.213,0,0,0-2.238-1.737c-3.009-1.349-6.786.223-8.551,3s-1.767,6.413-.708,9.532a24.9,24.9,0,0,0,4.254,7.26c-.132.213-.271.421-.4.634a70.318,70.318,0,0,0-6.039,12.353,29.237,29.237,0,0,0-3.205-13.314c-2.094-3.821-5.574-6.857-8.692-10.022a6,6,0,0,0-10.306,4.085q0,.077,0,.155.648.278,1.275.6a2.941,2.941,0,0,1-.6,5.45l-.059.016a29.269,29.269,0,0,0,1.24,4.267,30.133,30.133,0,0,0,16.957,17.152c.253.1.5.194.751.285a71.775,71.775,0,0,0-1.875,18.493,68.074,68.074,0,0,0,1.238,10.922l-.032-.127a17.989,17.989,0,0,0-7.228-9.662c-5.118-3.348-11.91-4.047-17.315-6.6a3.376,3.376,0,0,0-4.785,3.824l.035.133a19.759,19.759,0,0,1,2.318.822q.648.278,1.275.6a2.941,2.941,0,0,1-.6,5.45l-.059.016-.121.032a29.292,29.292,0,0,0,6.269,7.8,30.16,30.16,0,0,0,22.782,7.176h.006a71.753,71.753,0,0,0,6.313,13.468l17.118-1.862c.041-.2.075-.4.109-.6a19.565,19.565,0,0,1-4.767.233c1.1-1.7,2.2-3.405,3.3-5.1a1.068,1.068,0,0,0,.07-.1c.557-.868,1.122-1.73,1.679-2.6h0a28.655,28.655,0,0,0-1.624-7.167Z" transform="translate(-187.429 -154.29)" fill="#f26927"/>
  <path id="Path_502" data-name="Path 502" d="M666.7,272.05a6.011,6.011,0,0,1,3.831,8.383l9.186,10.213-4.845,7.1-12.77-14.6a6.044,6.044,0,0,1,4.6-11.088Z" transform="translate(-375.997 -201.287)" fill="#a0616a"/>
  <path id="Path_503" data-name="Path 503" d="M756.831,305.383h0a12.018,12.018,0,0,0-16.568-3.926l-30.21,18.711-32.588-27.7-8.108,7.549,36,46.709,46.79-24.392C751.055,322.9,758.151,307.53,756.831,305.383Z" transform="translate(-380.133 -209.542)" fill="#f36928"/>
  <path id="Path_504" data-name="Path 504" d="M564,341.958a113.57,113.57,0,1,1-13.425-53.606,112.08,112.08,0,0,1,6.28,13.867c.246.663.486,1.325.719,1.994v.006q1.562,4.412,2.752,8.988A113.613,113.613,0,0,1,564,341.958Z" transform="translate(-247.147 -183.903)" fill="#fe9d6a"/>
  <path id="Path_505" data-name="Path 505" d="M475.634,286.874a38.119,38.119,0,0,0-33.465-1.369c-4.679,2.036-9.606,5.689-11.167,12.286,6.313-3.726,14.485,2.161,16.109,11.6l-.379.1c-.858,6.541,1.057,13.662,4.766,17.717a12.461,12.461,0,0,1,5.981-8.871c2.725-1.791,5.739-3.092,7.818-6.171,2.465-3.65,3.091-8.984,4.071-13.849S472.206,288.229,475.634,286.874Z" transform="translate(-284.825 -205.47)" fill="#fff"/>
  <path id="Path_506" data-name="Path 506" d="M406.479,340.731c-1.748,2.626-4.084,4.273-6.179,6.324a14.225,14.225,0,0,0-4.494,8.4c-.265,2.285.145,4.608.088,6.918s-.827,4.91-2.4,5.485c-2.481.9-4.374-3.711-6.924-4.033-2.026-.252-3.85,2.935-3.263,5.7s3.345,3.989,4.93,2.184c1.433,2.4.423,6.766-1.729,7.5-.227,1.515-.454,3.023-.675,4.538-5.441-3.806-10.938-7.675-15.565-13.248a40.214,40.214,0,0,1-9.165-21.662c-.6-6.406.29-13.734-2.651-18.664-2.354-3.945-6.394-4.816-10.029-4.57-.663.044-1.332.12-1.994.2a112.36,112.36,0,0,1,8.136-18.62,7.97,7.97,0,0,0,2.039-1.269c3.383-2.872,4.885-8.685,7.631-12.706q.265-.388.549-.757c2.809-3.667,6.57-5.554,10.206-7.309,8.047-3.907,16.328-7.864,24.824-7.322l-2.417.234q-4.232,11.853-8.47,23.707-.644,1.818-1.3,3.642c-1.6,4.494-3.257,9.278-3.011,14.309.145,2.979,1.18,6.16,3.15,7.183,1.837.947,3.844-.215,5.617-1.363.751-.48,1.5-.959,2.247-1.445,2.7-1.736,5.681-3.516,8.527-2.354,2.607,1.06,4.532,4.6,4.9,8.42A16.833,16.833,0,0,1,406.479,340.731Z" transform="translate(-251.007 -203.668)" fill="#fff"/>
  <path id="Path_507" data-name="Path 507" d="M453.363,462.655l-23.614-14.539.134-.344c-4.894,1.864-6.926,10.563-6.117,17.678s3.551,13.474,4.937,20.406a54.164,54.164,0,0,1-2.042,28.421A232.757,232.757,0,0,0,454,476.6a20.156,20.156,0,0,0,2.473-5.484,8.725,8.725,0,0,0-.578-6.205A6.909,6.909,0,0,0,453.363,462.655Z" transform="translate(-281.861 -271.642)" fill="#fff"/>
  <path id="Path_508" data-name="Path 508" d="M420.884,321.547a8.7,8.7,0,0,0-.4,6.33c.775,1.986,2.412,2.883,3.92,3.631l4.349,2.156c1.447.717,3.007,1.442,4.482.852,1.779-.712,3.013-3.5,2.694-6.09-.34-2.755-2.076-4.651-3.683-6.265l-6.744-6.776-1.267,1.552A16.92,16.92,0,0,0,420.884,321.547Z" transform="translate(-280.448 -218.705)" fill="#fff"/>
  <path id="Path_509" data-name="Path 509" d="M610.285,342.178l5.87,1.382c-.341,6.608-3.617,12.725-8.01,14.94-1.83.922-3.869,1.262-5.384,2.986-1.37,1.565-2.064,4-2.7,6.331l-3.352,12.194c-1.2,4.38-2.739,9.247-5.857,10.825-2.676,1.357-5.737-.3-7.795-3.086s-3.314-6.526-4.532-10.174c.076,3.976-1.774,7.877-4.393,9.259s-5.819.133-7.574-2.954c-1.262-2.215-1.786-5.138-3.023-7.385s-3.831-3.535-5.182-1.426c-.89,1.4-.776,3.547-1.218,5.327a5.785,5.785,0,0,1-4.835,4.652c-2.058.151-4.065-1.035-5.788-2.645-3.554-3.333-6.173-8.622-7.189-14.5a17.3,17.3,0,0,1,.2-7.928c.776-2.455,2.651-4.349,4.513-3.882,1.225-2.588-1.193-6.021-3.37-5.718s-3.894,2.645-5.687,4.443-4.286,3.105-6.084,1.319a2.468,2.468,0,0,1-2.506,2.619c-1.161-.133-2.2-1.067-3.263-1.729-4.122-2.569-9.354-.865-12.283,4,1.83-7.789,4.513-16.726,10.137-18.556,2.3-.751,4.8-.133,6.974-1.433,3.844-2.3,4.62-11.008,1.3-14.6.423,3.4.341,7.359-1.452,9.682s-5.554.808-5.327-2.626a2.3,2.3,0,0,1-4.279.909c-1.193-1.818-1.092-4.79-.246-6.962a16.4,16.4,0,0,1,3.68-5.226c3-3.213,6.04-6.463,9.512-8.483s7.492-2.7,10.976-.694c1.837,1.06,3.453,2.828,5.327,3.762s4.254.821,5.5-1.376c1.395-2.449.738-6.084,1.256-9.146.928-5.409,6.337-7.94,9.335-4.368-2.241-.574-4.557,2.077-4.835,5.289s1.338,6.457,3.509,7.429c3.648,1.616,7.221-2.449,9.979-6.211q4.317-5.908,8.647-11.809a14.269,14.269,0,0,1,1.546-1.881,4.976,4.976,0,0,1,6.8-.139c2.916,2.379,4.286,7.258,6.678,10.616,3.471,4.879,8.666,6.066,13.5,7.012q5.406,1.051,10.818,2.114a112.09,112.09,0,0,1,6.28,13.867C620.346,330.791,614.709,335.645,610.285,342.178Z" transform="translate(-316.75 -209.88)" fill="#fff"/>
  <path id="Path_510" data-name="Path 510" d="M678.611,497.023a113.16,113.16,0,0,1-9.4,15.735c-2.272-.972-4.715.764-6.842,2.392-2.222,1.7-4.892,3.364-7.17,1.811-2.329-1.591-3.08-6.04-2.342-9.569s2.581-6.324,4.368-8.988c1.893-2.828,3.92-5.763,6.552-6.861s6.028.454,6.8,4.2l1.868-.063c-1.048-1.439-.5-4.418.909-4.942,1.622-.612,3.03,1.616,3.989,3.585C677.765,495.218,678.2,496.114,678.611,497.023Z" transform="translate(-373.425 -288.783)" fill="#fff"/>
  <path id="Path_511" data-name="Path 511" d="M545.157,436.352c-4.016.253-7.2-4.691-9.31-9.554s-4.042-10.425-7.666-12.9c-2.07-1.414-4.431-1.609-6.676-2.294a8.267,8.267,0,0,1-5.67-4.992l-2.547-1.029c-3.364,1.892-6.773,3.818-9.672,6.9a21.616,21.616,0,0,0-5.763,12.6c-.487,5.1,1.31,10.784,4.668,12.7,2.653,1.513,5.742.559,8.429,1.945,3.358,1.731,5.351,6.76,6.105,11.725s.563,10.125,1.1,15.146,2.028,10.247,5.107,12.82c3.853,3.22,9.507.544,11.236-5.317.848-2.875.819-6.12,1.453-9.1,1.117-5.256,4.131-9.156,6.521-13.468S546.746,441.356,545.157,436.352Z" transform="translate(-311.524 -254.772)" fill="#fff"/>
  <path id="Path_512" data-name="Path 512" d="M510.2,364.973a10.731,10.731,0,0,1,1.046,1.11,3.647,3.647,0,0,1-.064,3.766,3.5,3.5,0,0,0,2.509-1.275,16.139,16.139,0,0,0,1.924-2.71,2.954,2.954,0,0,0,.567-2.364c-.19-.541-.638-.772-.953-1.18a8.016,8.016,0,0,1-.88-2.556c-.557-1.913-1.892-3.32-3.341-3.521l.2.038a1.909,1.909,0,0,0-.894,2.033c.122.788.628,1.442.578,2.245-.072,1.155-1.227,1.7-1.3,2.852A2.205,2.205,0,0,0,510.2,364.973Z" transform="translate(-316.252 -235.044)" fill="#fff"/>
  <path id="Path_513" data-name="Path 513" d="M499.142,337.837l.018,0a3.216,3.216,0,0,0,.343-.365Z" transform="translate(-312.071 -227.536)" fill="#e6e6e6"/>
  <path id="Path_514" data-name="Path 514" d="M496.924,343.474a3.5,3.5,0,0,0,1.09-3.472c-.292-1.313-1.324-2.2-2.277-1.954a2.32,2.32,0,0,1-2.157.635c-.589-.152-1.235-.542-1.746-.1a2.643,2.643,0,0,0-.595,1.161l-.567,1.741a1.1,1.1,0,0,0-.067.66.559.559,0,0,0,.429.341l3.4,1A2.931,2.931,0,0,0,496.924,343.474Z" transform="translate(-308.648 -227.752)" fill="#fff"/>
  <path id="Path_515" data-name="Path 515" d="M639.635,468.113l-1.573-2.575a8.6,8.6,0,0,0-2.072-2.6,1.836,1.836,0,0,0-2.614.262l.064.49a11.072,11.072,0,0,1,2.762,5.389c.12.877.078,1.785.183,2.666a3.109,3.109,0,0,0,.971,2.174c.825.552,1.795-.262,2.382-1.254a4.317,4.317,0,0,0,.669-2.748,4.82,4.82,0,0,0-.772-1.8Z" transform="translate(-365.746 -277.535)" fill="#fff"/>
  <path id="Path_516" data-name="Path 516" d="M678.993,412.016l.455-2.983a8.6,8.6,0,0,0,.09-3.325,1.836,1.836,0,0,0-2.169-1.483l-.267.416a11.072,11.072,0,0,1-1.357,5.9c-.473.748-1.09,1.416-1.577,2.157a3.109,3.109,0,0,0-.657,2.289c.276.953,1.542.956,2.63.575a4.317,4.317,0,0,0,2.281-1.672A4.819,4.819,0,0,0,678.993,412.016Z" transform="translate(-381.773 -254.215)" fill="#e6e6e6"/>
  <path id="Path_517" data-name="Path 517" d="M654.661,467.134a5.944,5.944,0,0,0-.192-2.4,5.261,5.261,0,0,1,.8-2.982,9.694,9.694,0,0,0,1.247-2.734,2.288,2.288,0,0,0-.06-1.339c-.173-.39-.594-.568-.835-.259l.516.332a4.7,4.7,0,0,0-2.094.1,2.591,2.591,0,0,0-1.587,1.789,11.061,11.061,0,0,1-.416,1.856c-.308.633-.9.843-1.278,1.4a3.343,3.343,0,0,0,.053,3.176,3.707,3.707,0,0,0,2.1,1.649C653.543,467.95,654.373,467.962,654.661,467.134Z" transform="translate(-372.549 -275.439)" fill="#fff"/>
  <path id="Path_518" data-name="Path 518" d="M678.538,477.69a7.207,7.207,0,0,0,.907,1.665c.7.706,1.654.272,2.5.1a4.33,4.33,0,0,1,4.119,1.652,10.485,10.485,0,0,0-6.03-7.524,17.712,17.712,0,0,0-6.2-.97l-.36.092C674.395,475.379,677.276,475.319,678.538,477.69Z" transform="translate(-381.781 -281.576)" fill="#fff"/>
  <path id="Path_519" data-name="Path 519" d="M578.558,490.05l.005.012.1-.2Z" transform="translate(-343.826 -288.472)" fill="#e6e6e6"/>
  <path id="Path_520" data-name="Path 520" d="M573.379,494.485a19.747,19.747,0,0,0-1.246,2.738,23.834,23.834,0,0,0-.9,4.685c-.113.9-.148,2.056.418,2.5a.8.8,0,0,0,1.05-.143,4.154,4.154,0,0,0,.761-1.131,26.056,26.056,0,0,0,2.569-6.1,10.609,10.609,0,0,0-.421-6.837Z" transform="translate(-340.869 -288.606)" fill="#fff"/>
  <path id="Path_521" data-name="Path 521" d="M538.355,300.335a2.529,2.529,0,0,0,2.726.532,9,9,0,0,0,2.565-1.694,6.034,6.034,0,0,0,1.555-1.7,3.44,3.44,0,0,0,.318-2.62,2.662,2.662,0,0,0-2.029-1.6l-3.776-1.12.911-.821c-.937-.5-1.973.43-2.559,1.586a8.537,8.537,0,0,0-.777,2.391C536.975,297.1,537.282,299.26,538.355,300.335Z" transform="translate(-327.277 -209.024)" fill="#e6e6e6"/>
  <path id="Path_522" data-name="Path 522" d="M575.615,290.506a2.079,2.079,0,0,0,2.834.231,3.169,3.169,0,0,0,1.253-2.258c.089-.99-.4-2.091-1.1-2.176l.16-.927c-1.347-.243-3-.292-3.726,1.344A3.84,3.84,0,0,0,575.615,290.506Z" transform="translate(-342.314 -206.656)" fill="#e6e6e6"/>
  <path id="Path_523" data-name="Path 523" d="M548.987,211.737a29.962,29.962,0,0,0-33.132,26.415c-1.855,16.443,6.808,52.151,22.6,66.932,7.437-28.32,33.5-45.118,36.945-60.215C579.086,228.737,565.43,213.592,548.987,211.737Z" transform="translate(-318.655 -177.184)" fill="#2f2e41"/>
  <ellipse id="b262ea8c-1946-46c9-a449-3a1996c39394" cx="9.772" cy="9.772" rx="9.772" ry="9.772" transform="translate(215.099 51.564)" fill="#fff"/>
  <ellipse id="bcc29a3a-8123-4529-80aa-6f70df2823cf" cx="6.4" cy="6.4" rx="6.4" ry="6.4" transform="translate(208.196 129.189)" fill="#f36928"/>
  <path id="Path_524" data-name="Path 524" d="M568.893,244.052A9.772,9.772,0,0,1,558.827,260.8a9.77,9.77,0,0,0,7.147-17.916A9.775,9.775,0,0,1,568.893,244.052Z" transform="translate(-335.937 -189.717)" fill="#231f20" opacity="0.2"/>
  <path id="Path_525" data-name="Path 525" d="M587.94,245.541c-3.448,15.1-29.508,31.9-36.945,60.215a41.453,41.453,0,0,1-4.127-4.522c8.357-26.62,32.794-42.8,36.126-57.382,2.982-13.056-5.394-25.463-17.413-30.7C580.13,216.805,591.317,230.758,587.94,245.541Z" transform="translate(-331.155 -177.825)" fill="#231f20" opacity="0.2"/>
  <path id="Path_526" data-name="Path 526" d="M401.942,275.3a22.5,22.5,0,0,0-24.881,19.837c-1.393,12.348,5.113,39.164,16.974,50.264,5.585-21.267,25.155-33.882,27.744-45.22C424.546,288.066,414.291,276.693,401.942,275.3Z" transform="translate(-263.182 -202.62)" fill="#2f2e41"/>
  <ellipse id="b262ea8c-1946-46c9-a449-3a1996c39394-2" data-name="b262ea8c-1946-46c9-a449-3a1996c39394" cx="7.338" cy="7.338" rx="7.338" ry="7.338" transform="translate(127.322 85.456)" fill="#fff"/>
  <ellipse id="bcc29a3a-8123-4529-80aa-6f70df2823cf-2" data-name="bcc29a3a-8123-4529-80aa-6f70df2823cf" cx="4.806" cy="4.806" rx="4.806" ry="4.806" transform="translate(122.138 143.749)" fill="#f36928"/>
  <path id="Path_527" data-name="Path 527" d="M416.891,299.568a7.338,7.338,0,0,1-7.559,12.579,7.337,7.337,0,0,0,5.367-13.454,7.336,7.336,0,0,1,2.192.875Z" transform="translate(-276.159 -212.032)" fill="#231f20" opacity="0.2"/>
  <path id="Path_528" data-name="Path 528" d="M431.2,300.686c-2.589,11.338-22.159,23.952-27.744,45.22a31.119,31.119,0,0,1-3.1-3.4c6.276-19.991,24.628-32.138,27.129-43.092,2.239-9.8-4.051-19.122-13.076-23.058C425.33,279.106,433.731,289.584,431.2,300.686Z" transform="translate(-272.568 -203.101)" fill="#231f20" opacity="0.2"/>
  <path id="Path_529" data-name="Path 529" d="M606.141,543.348h-8.057l-3.833-31.078h11.892Z" transform="translate(-237.637 -204.837)" fill="#a0616a"/>
  <path id="Path_530" data-name="Path 530" d="M790.079,730.488h-5.717l-1.02-5.4-2.614,5.4H765.565a3.409,3.409,0,0,1-1.937-6.214l12.109-8.363v-5.457l12.736.76Z" transform="translate(-417.24 -376.679)" fill="#2f2e41"/>
  <path id="Path_531" data-name="Path 531" d="M554.141,543.348h-8.057l-3.833-31.078h11.892Z" transform="translate(-216.844 -204.837)" fill="#a0616a"/>
  <path id="Path_532" data-name="Path 532" d="M738.079,730.488h-5.717l-1.021-5.4-2.614,5.4H713.565a3.409,3.409,0,0,1-1.937-6.214l12.109-8.363v-5.457l12.736.76Z" transform="translate(-396.447 -376.679)" fill="#2f2e41"/>
  <path id="Path_533" data-name="Path 533" d="M698.128,524.993c1.542,2.312,18.316,65.891,18.316,65.891l14.873,1.7-1.765-16-2.7-28.309-4.178-18.9s14.756-33.582,15.688-36.257l.663-1.92,4.61,41.839a11.749,11.749,0,0,1,.7,4.672c-.139,2.613,2.482,41.931,2.482,41.931l1.26,14.1,12.743,1.77,5.17-24.4c4.317-7.925,1.842-36.087.077-38.708s-1.064-20.877-1.064-20.877c2.254-.793,15.7-46.634,8.974-46.364.432-2.444.771-4.626.771-4.626l-11.672-9.413-29.21-7.594L726.5,440s-13.162,24.338-13.031,25.549a6.73,6.73,0,0,1-.994,4.387l-13.289,44.475S696.571,522.657,698.128,524.993Z" transform="translate(-391.439 -268.534)" fill="#2f2e41"/>
  <path id="Path_534" data-name="Path 534" d="M788.461,309.864,783.815,300,768,300.606l-5.159,10.264s-14.744,17.61-15.221,23.336c-.6,7.2,4.388,42.5-.6,40.209,0,0-11.759,13.8-4.8,13.8s38.434,19.759,40.5,21.981,11.285,3.663,10.512-.976-4.768-29.727-4.768-29.727l10.814-39.449c3.112-8.517,4.081-18.07-2.954-23.792Z" transform="translate(-408.388 -212.553)" fill="#f36928"/>
  <path id="Path_535" data-name="Path 535" d="M706.4,267.232a17.332,17.332,0,0,0-22.5,9.715c-3.532,8.9-4.117,30.144,2.455,40.792,8.451-14.679,25.547-20.1,29.764-28C720.619,281.291,715.3,270.764,706.4,267.232Z" transform="translate(-384.909 -198.961)" fill="#2f2e41"/>
  <ellipse id="b262ea8c-1946-46c9-a449-3a1996c39394-3" data-name="b262ea8c-1946-46c9-a449-3a1996c39394" cx="5.653" cy="5.653" rx="5.653" ry="5.653" transform="translate(308.722 76.741)" fill="#fff"/>
  <ellipse id="bcc29a3a-8123-4529-80aa-6f70df2823cf-3" data-name="bcc29a3a-8123-4529-80aa-6f70df2823cf" cx="3.702" cy="3.702" rx="3.702" ry="3.702" transform="translate(293.665 118.578)" fill="#6c63ff"/>
  <path id="Path_536" data-name="Path 536" d="M715.119,286.386a5.653,5.653,0,0,1-8.162,7.822,5.652,5.652,0,0,0,6.71-8.915,5.653,5.653,0,0,1,1.452,1.093Z" transform="translate(-395.168 -206.673)" fill="#231f20" opacity="0.2"/>
  <path id="Path_537" data-name="Path 537" d="M718.427,291.279c-4.217,7.9-21.313,13.324-29.764,28a23.976,23.976,0,0,1-1.617-3.151c8.706-13.59,24.8-18.909,28.877-26.546,3.646-6.835.855-15.032-5.058-19.783C718.43,274.052,722.557,283.539,718.427,291.279Z" transform="translate(-387.207 -200.479)" fill="#231f20" opacity="0.2"/>
  <path id="Path_538" data-name="Path 538" d="M676.906,355.838a6.011,6.011,0,0,1,7.222,5.727l12.824,4.922-1.091,8.523L677.85,367.8a6.044,6.044,0,0,1-.943-11.966Z" transform="translate(-381.208 -234.832)" fill="#a0616a"/>
  <path id="Path_539" data-name="Path 539" d="M775.91,325.483h0a12.019,12.019,0,0,0-16.543,4.032l-18.407,30.4-41.617-9.865-3.792,10.409,53.3,25.245,26.992-42.992C779.881,337.03,781.859,329.115,775.91,325.483Z" transform="translate(-390.607 -222.04)" fill="#f36928"/>
  <path id="Path_540" data-name="Path 540" d="M806.747,252.658a17.9,17.9,0,1,1-30.784-12.414l.086-.086c.143-.15.286-.3.437-.444l.005,0a.007.007,0,0,0,0-.005c.186-.172.372-.344.566-.508a17.893,17.893,0,0,1,29.689,13.459Z" transform="translate(-420.757 -186.467)" fill="#2f2e41"/>
  <ellipse id="Ellipse_29" data-name="Ellipse 29" cx="15.008" cy="15.008" rx="15.008" ry="15.008" transform="translate(348.675 55.324)" fill="#9e616a"/>
  <path id="Path_541" data-name="Path 541" d="M796.89,263.1l-2.487-.439a6.934,6.934,0,0,1-5.584-5.592l-2.426,4.066-.106.035c-5.781,1.919-11.8,1.345-18.384-1.753a51.289,51.289,0,0,1-5.472-3.017l-.13-.081-.01-.153c-.336-4.882.76-8.961,3.086-11.485a9.252,9.252,0,0,1,6.982-2.91.574.574,0,0,0,.248-.137l.1-.072v-.025l.172-.081c.37-.174.748-.341,1.125-.493a16.923,16.923,0,0,1,17.673,3.426c4.623,4.413,6.743,11.82,5.276,18.431Z" transform="translate(-417.27 -188.493)" fill="#2f2e41"/>
  <path id="Path_542" data-name="Path 542" d="M846.856,265.7c-5.107-2.636,1.461-12.2.141-17.8s-10.825-7.393-11.43-13.108-2.03-11.61-5.8-15.947c-2.41-2.771-5.961-4.817-9.617-4.47a8.647,8.647,0,0,0-7.579,10.678,2.658,2.658,0,0,0-4.4.522,2.7,2.7,0,0,0,2.258,3.43c2.017,2.491,4.326,5.134,7.486,5.636a3.409,3.409,0,0,0,2.905-.671,1.769,1.769,0,0,0-.081-2.674c3.971,1.577,6.3,5.87,6.888,10.1s-.226,8.513-.763,12.752-.769,8.7.893,12.633a16.086,16.086,0,0,0,11.418,9.052,21.9,21.9,0,0,0,14.653-2.329,34.643,34.643,0,0,0,11.232-9.975C859.816,267.255,852.567,268.649,846.856,265.7Z" transform="translate(-435.581 -178.302)" fill="#2f2e41"/>
  <path id="Path_543" data-name="Path 543" d="M803,263.554a30.528,30.528,0,0,0-23.5-20.425c-.021-.007-.093-.036-.186-.079-.057-.036-.129-.072-.2-.107.215-.122.422-.229.637-.337l.005,0a.008.008,0,0,0,0-.005c.186-.172.372-.344.566-.508l.544.021S799.988,239.084,803,263.554Z" transform="translate(-424.021 -189.359)" fill="#fd6584"/>
  <path id="Path_544" data-name="Path 544" d="M595.913,212.357l-10.763,12.47-17.785-5.252,19.389,8.935Z" transform="translate(-226.885 -84.913)" opacity="0.2"/>
  <path id="Path_545" data-name="Path 545" d="M799.247,744.45l-165.488.184a.715.715,0,0,1,0-1.429l165.488-.184a.715.715,0,0,1,0,1.429Z" transform="translate(-365.613 -389.701)" fill="#cacaca"/>
  <path id="Path_546" data-name="Path 546" d="M634.727,459.483q-11.624,0-25.48-.879c-47.779-3.034-109.668-13.583-174.266-29.7S310.8,393.017,267.191,373.249c-21.24-9.63-37.542-18.746-48.452-27.095-11.551-8.838-16.6-16.542-15.018-22.9,3.09-12.38,30.446-15.089,52.851-15.181l.008,1.8c-30.768.126-48.919,5.033-51.111,13.816-2.792,11.187,19.977,28.651,62.467,47.916,43.507,19.725,102.987,39.453,167.482,55.547s126.27,26.624,173.944,29.652c46.558,2.957,74.863-1.763,77.655-12.95,2.318-9.288-12.962-22.971-43.024-38.528l.828-1.6c21.843,11.3,47.2,27.517,43.943,40.563-1.586,6.355-9.665,10.781-24.015,13.157A188.054,188.054,0,0,1,634.727,459.483Z" transform="translate(-193.83 -215.783)" fill="#f36928"/>
</svg>
