<svg id="Component_9_1" data-name="Component 9 – 1" xmlns="http://www.w3.org/2000/svg" width="727.843" height="540.639" viewBox="0 0 727.843 540.639">
  <path id="Path_566" data-name="Path 566" d="M682.231,144.433C599.625,29.479,425.118-17.151,253.5,33.07,162.764,59.621,75.282,112.819,31.928,215.829c-77.5,184.14,85.221,242.95,191.622,261.693,51.45,9.063,99.907,24.288,144.188,45.016,79.665,37.292,220.677,70.336,327.007-85C771.816,324.949,737.261,221,682.231,144.433Z" transform="translate(-11.697 -13.011)" fill="#fff6f2"/>
  <path id="Path_567" data-name="Path 567" d="M229.267,252.993a21.27,21.27,0,0,0-1.39-5.323,2.409,2.409,0,0,0-1.225-1.509,2.524,2.524,0,0,0-1.215-.014l-6.24.955a2.392,2.392,0,0,0-1.424.553c-.813.855-.012,2.231-.037,3.41a3.206,3.206,0,0,1-2.484,2.758,9.389,9.389,0,0,1-3.946-.049l-8.725-1.356a14.386,14.386,0,0,0,6.6-4.4c1.148-1.36,1.759-3.9.1-4.544a4.074,4.074,0,0,0-1.515-.122c-3.953.031-7.064-3.27-10.765-4.66a11.9,11.9,0,0,0-13.4,3.993l4.648.224a2.063,2.063,0,0,1,1.238.33c1.019.837-.248,2.444-.1,3.755.186,1.7,2.447,2.066,4.151,2.238s3.866,1.557,3.046,3.061c-8.565,2.95-17.282-5.767-26.277-4.694a53.393,53.393,0,0,0-6.649,1.728c-13.579,3.436-27.616-5.731-41.488-3.79a52.68,52.68,0,0,0-9.056,2.389,12.209,12.209,0,0,0-5.229,2.727c-1.372,1.438-1.894,3.9-.594,5.4a30.389,30.389,0,0,1-10.65-1.012,5.966,5.966,0,0,1,3.067,5.258,63.187,63.187,0,0,0-16.187,4.936,27.265,27.265,0,0,0,3.35,4.463l-7.08,4.549a4.04,4.04,0,0,1,2.238,5.9c2.48-1.1,4.017-3.958,6.669-4.536,1.738-.379,3.505.332,5.154,1s3.46,1.315,5.166.814,2.965-2.714,1.881-4.123a88.288,88.288,0,0,1,22.426-3.5,2.813,2.813,0,0,1,1.7.322c.989.686.729,2.167.675,3.37s.884,2.782,1.958,2.24c-1.264,1.1-.183,3.16,1.029,4.312s2.674,2.743,1.932,4.242c-.194.391-.522.7-.709,1.1-.55,1.165.323,2.524,1.354,3.3s2.293,1.315,3.009,2.387.391,2.948-.889,3.1l-3.639-4.62a9.473,9.473,0,0,0-2.458,4.658,9.774,9.774,0,0,1,1.209,13.37c-1.651,1.939-4,3.118-6.047,4.631s-3.945,3.667-3.94,6.214c.009,4.4-.351,8.488,1.3,12.568a193.6,193.6,0,0,0,10.51,21.928c1.04,1.86,2.384,3.9,4.49,4.218q-3.993-9.721-7.189-19.744c1.388.005,2.991.116,3.8,1.24.674.931.529,2.2.738,3.327a10.305,10.305,0,0,0,1.314,3.089l12.712,22.644c1.054,1.877,2.263,3.892,4.277,4.652,1.288.486,2.777.394,3.963,1.094.929.548,1.555,1.522,2.5,2.039,2.678,1.461,6.4-1.341,8.9.4a25.053,25.053,0,0,1,1.83,1.862c2.311,2,6.1.663,8.771,2.156,1.72.962,2.611,2.887,3.528,4.631,2.3,4.369,6.015,8.648,10.938,9,1.547.109,3.126-.184,4.638.16s3,1.663,2.757,3.195c-.416,2.625.881,5.5.533,8.135-.635,4.8-7.443,6.909-8.028,11.716a27.194,27.194,0,0,1-.178,3.169c-.307,1.262-1.255,2.29-1.592,3.545-.638,2.378,1.065,4.745,2.937,6.344s4.1,2.979,5.127,5.219c1.082,2.367.55,5.127.9,7.706.768,5.629,5.63,9.8,10.634,12.494a11.109,11.109,0,0,1,4.148,3.036c1.288,1.856,1.16,4.3,1.59,6.522,1.053,5.432,5.626,9.908,5.756,15.44.092,3.932-2.093,7.5-3.4,11.209a26.14,26.14,0,0,0,2.135,21.679,34.725,34.725,0,0,1,2.836,4.992c1.233,3.19.833,6.817,1.97,10.043,1.5,4.265,5.633,7.788,5.237,12.292,1.875,3.893,6.015,5.807,10.178,6.965l7.461,2.077a9.588,9.588,0,0,0,4.376.511,3.284,3.284,0,0,0,2.806-2.978c-3.659-.825-7.435-1.7-10.451-3.932s-5.082-6.2-3.938-9.772c.531-1.656,1.66-3.569.586-4.937-.615-.784-1.738-.988-2.431-1.7-1.081-1.115-.71-2.988.068-4.333s1.9-2.546,2.214-4.068a4.244,4.244,0,0,0-1.989-4.416,10.55,10.55,0,0,0,3.693-2.37,3.6,3.6,0,0,0,.656-4.08c2.269.288,4.947.429,6.436-1.307,1.189-1.386,1.108-3.458.638-5.222s-1.264-3.479-1.289-5.3a96.668,96.668,0,0,0,15.683-.532,10.17,10.17,0,0,0-4.768-5.972c2.357-.4,4.5-3.221,5.249-5.493a14.132,14.132,0,0,0,.094-7.092,3.806,3.806,0,0,1-.07-1.858,3.621,3.621,0,0,1,1.865-1.8l11.7-6.72a6.815,6.815,0,0,0,1.871-1.381c1.226-1.44,1.044-3.614.417-5.4s-1.633-3.461-1.875-5.337c-.723-5.609,5.281-9.634,7.308-14.914a22.471,22.471,0,0,0,1.111-6.539c.165-2.378.178-5.14-1.648-6.673-1.75-1.469-4.485-1.141-6.317-2.508-1.679-1.253-2.258-3.686-4.093-4.7-1.666-.919-3.755-.334-5.607-.767-3.262-.761-5.315-4.521-8.647-4.869-1.88-.2-4.007.723-5.548-.372-1.358-.965-1.412-2.9-1.67-4.549a12.7,12.7,0,0,0-10.253-10.286c-1.938-.311-4.048-.193-5.7-1.258-1.67-1.079-2.435-3.1-3.747-4.591-2.114-2.407-5.443-3.262-8.561-4l-12.685-2.982c-2.252-.529-5.154-.81-6.363,1.162a9.115,9.115,0,0,0-.753,2.367,7.331,7.331,0,0,1-6.894,5.189,8.153,8.153,0,0,0-4.807-3.72,29.958,29.958,0,0,1-3.89-.926,5.464,5.464,0,0,1-2.371-7.579,6.8,6.8,0,0,0-1.162-8.181c-2.157-1.937-5.278-2.4-8.17-2.211-.758-1.653.509-3.518,1.874-4.719s3.022-2.382,3.32-4.176c.468-2.822-3.133-4.965-5.866-4.124s-4.478,3.5-5.632,6.114a18,18,0,0,1-2.268,4.349,4.457,4.457,0,0,1-4.315,1.767c-2.251-.575-3.12-3.25-3.618-5.519a35.891,35.891,0,0,1-1.2-9.245,12.09,12.09,0,0,1,3.486-8.419c3.742-3.435,9.482-3.1,14.532-2.55a3.691,3.691,0,0,1,.378-4.875,5.542,5.542,0,0,1,5.024-1.234,6.923,6.923,0,0,1,3.892,2.327c1.435,1.75,1.843,4.112,2.928,6.1s3.524,3.68,5.52,2.614c1.724-.92,2-3.311,1.569-5.218s-1.341-3.761-1.185-5.709c.3-3.718,4.15-5.955,7.551-7.486s7.295-3.59,7.833-7.28a6.638,6.638,0,0,1,.4-2.116,4.15,4.15,0,0,1,1.523-1.432c9.925-6.559,20.014-13.2,31.358-16.782.59-.186.659.021,1.261-.125.842-.487.284-1.832-.523-2.374s-1.886-.958-2.09-1.908c-.151-.7.261-1.385.368-2.091a2.611,2.611,0,0,0-3.428-2.645c-.911-1.207.892-2.609,2.35-3.01a63.807,63.807,0,0,1,13.405-2.19,2.415,2.415,0,0,1,1.525.259,1.824,1.824,0,0,1,.125,2.49,14.651,14.651,0,0,1-2.052,1.863,5.6,5.6,0,0,0-1.452,5.632c2.367,1.2,4.94,2.443,7.561,2.019s4.948-3.369,3.716-5.722c-1.147-2.19-4.594-2.684-5.187-5.085-.694-2.811,3.285-5.311,2.389-8.064-.393-1.206-1.594-1.916-2.517-2.786a7.56,7.56,0,0,1-1.654-8.383,9.538,9.538,0,0,1-8.365-2.618c-2-2.019-3.6-5.2-6.438-5.114-2.607.083-4.853,3.125-7.291,2.2-.6-.228-1.232-.693-1.813-.421a1.5,1.5,0,0,0-.676,1.123c-.619,2.962.446,6.337-1.168,8.9-1.757,2.785-5.82,3.172-7.95,5.683-1.156,1.363-1.6,3.2-2.667,4.638s-3.318,2.351-4.593,1.1a6.331,6.331,0,0,0-1.72-7.7,16.894,16.894,0,0,0-3.8-1.848,22.529,22.529,0,0,1-4.244-2.365,4.181,4.181,0,0,1-1.558-1.667,3.8,3.8,0,0,1,.107-2.636,10.779,10.779,0,0,1,8.578-7.11c1.7-.231,3.674-.15,4.8-1.443.595-.685.907-1.72,1.77-2a2.61,2.61,0,0,1,1.634.2l6.338,2.231a4.448,4.448,0,0,0,2.258.373,1.531,1.531,0,0,0,1.324-1.609c-.2-1.052-1.822-1.558-1.675-2.619a1.748,1.748,0,0,1,.53-.892,22.658,22.658,0,0,1,17.971-7.1c.8,1.314-.465,2.87-1.518,3.991s-1.9,3.125-.626,3.989a3.491,3.491,0,0,0,1.688.38,14.734,14.734,0,0,1,4.491,1.362q3.285,1.43,6.444,3.128a8.169,8.169,0,0,1,.163-4.15c.526-1.3,2.022-2.317,3.329-1.811,1.259.487,1.9,2.155,3.246,2.307,1.789.2,2.5-2.44,1.748-4.078s-2.227-3.011-2.351-4.807c-.083-1.212.378-2.716-.59-3.45a2.636,2.636,0,0,0-1.142-.4l-24.177-4.449c-1.436-.264-3.51-.062-3.574,1.4-.036.814.692,1.619.37,2.368-.344.8-1.473.726-2.3,1.008a3.138,3.138,0,0,0-1.794,3.3,9.176,9.176,0,0,0,1.514,3.716C233.221,253.772,230.84,253.651,229.267,252.993Z" transform="translate(-37.669 -98.829)" fill="#f36928"/>
  <path id="Path_568" data-name="Path 568" d="M284.611,228.806a7.829,7.829,0,0,0-8.6,2.576,1.722,1.722,0,0,0-.4,1.814c.478.814,1.7.492,2.593.2a6.526,6.526,0,0,1,4.1-.1c.843.289,1.6.8,2.443,1.079a2.461,2.461,0,0,0,2.509-.367,3.266,3.266,0,0,0,.618-2.344,1.885,1.885,0,0,0-.48-1.549,2.463,2.463,0,0,0-1.111-.329,3.826,3.826,0,0,1-2.239-1.308" transform="translate(-112.303 -95.165)" fill="#3f3d56"/>
  <path id="Path_569" data-name="Path 569" d="M303.042,225.125a1.992,1.992,0,0,0-1.925,2.8,8.072,8.072,0,0,0,3.219.21,2.751,2.751,0,0,0,2.25-2.063,5.179,5.179,0,0,1-3.667-.7" transform="translate(-122.016 -93.911)" fill="#3f3d56"/>
  <path id="Path_570" data-name="Path 570" d="M346.531,216.947a37.022,37.022,0,0,0-8.253,2.8,6.2,6.2,0,0,1,3.961,6.228,3.243,3.243,0,0,0,.038,1.54c.3.735,1.181,1.011,1.954,1.2a12.88,12.88,0,0,0,4.285.547,4.365,4.365,0,0,0,3.547-2.167,15.448,15.448,0,0,1,.738-1.744c1.851-2.819,7.35.59,9.337-2.135.7-.96.636-2.4,1.549-3.165a3.479,3.479,0,0,1,1.592-.608,111.8,111.8,0,0,1,12.093-1.722c1.923-.167,4.43-.858,4.446-2.788a33.5,33.5,0,0,0-21.367,2.874c-2.382,1.193-5.532,3.7-7.826,2.121-.859-.592-.817-2.187-2-2.853C349.415,216.4,347.814,216.674,346.531,216.947Z" transform="translate(-136.256 -89.786)" fill="#3f3d56"/>
  <path id="Path_571" data-name="Path 571" d="M389.178,221.154l3.4.653a4.407,4.407,0,0,0-4.586,4.776c3.185,1.064,6.657.029,10.011.17s7.258,2.538,6.685,5.846c-.173,1-.751,2-.451,2.97a11.055,11.055,0,0,0,1.148,1.788c.705,1.3.142,2.954-.749,4.14s-2.087,2.132-2.868,3.392c-1.944,3.134-.839,7.186.318,10.687a9.422,9.422,0,0,0,1.812,3.618c1.715,1.824,4.51,1.982,7.014,2.019,1.822.027,3.909-.063,5.062-1.475,1.5-1.843.452-4.719,1.443-6.882.9-1.965,3.191-2.807,5.267-3.405a78.82,78.82,0,0,0,11.276-3.68c4.465-2.054,8.639-5.255,13.547-5.519a18.6,18.6,0,0,0,4.114-.289c1.326-.377,2.586-1.524,2.486-2.9-.086-1.175-1.08-2.038-1.857-2.924s-1.387-2.248-.673-3.185l12.865-2.4c-.912-2.485-1.622-5.758.473-7.376.756-.584,1.768-.817,2.412-1.523,1.1-1.2.545-3.274-.721-4.3a8.263,8.263,0,0,0-4.6-1.395,123.453,123.453,0,0,0-16.966.151L411.9,215.929c-2.224.122-4.792-.064-6.832.694-1.727.642-2.955,1.822-4.93,2.236C396.49,219.625,392.477,219.107,389.178,221.154Z" transform="translate(-155.213 -89.563)" fill="#f36928"/>
  <path id="Path_572" data-name="Path 572" d="M487.547,267.658a1.368,1.368,0,0,0-.99.224,1.249,1.249,0,0,0-.322.763,5.041,5.041,0,0,0,.732,3.608A3.533,3.533,0,0,0,490.2,273.8c1.531-.2,2.66-1.5,4.067-2.139,2.17-.982,11.384-2.512,5.01-5.955-2.2-1.187-3.616-.139-5.347.642a12.167,12.167,0,0,1-6.384,1.306Z" transform="translate(-192.659 -109.187)" fill="#3f3d56"/>
  <path id="Path_573" data-name="Path 573" d="M577.451,221.247a3.639,3.639,0,0,0-1.771,1.541,1.555,1.555,0,0,0,.583,2.063,2.321,2.321,0,0,0,.868.138l3.026.09c1.286.038,2.891.312,3.237,1.551.256.92-.318,2.1.375,2.759a1.951,1.951,0,0,0,1.029.4,7.016,7.016,0,0,0,3.049.1c2.2-.591,1.045-1.935,1.738-3.131,1.061-1.831.877-.723,2.747-1.772,1.381-.775,3.165-2.181,2.013-4.156C592.343,217.4,580.408,219.772,577.451,221.247Z" transform="translate(-226.734 -91.601)" fill="#3f3d56"/>
  <path id="Path_574" data-name="Path 574" d="M666.875,219.6l-1.757.234a70.784,70.784,0,0,0-11.764,2.252,19.58,19.58,0,0,0,5.152,1.264,15.824,15.824,0,0,1,2.886.41c1.686.5,3.384,1.8,5.013,1.134,1.01-.412,1.339-1.463,2.176-2.02.578-.385,2.768-1.008,3.013-1.4C673.573,218.335,668.4,219.393,666.875,219.6Z" transform="translate(-256.427 -91.676)" fill="#3f3d56"/>
  <path id="Path_575" data-name="Path 575" d="M682.7,231.708a32.954,32.954,0,0,0-6.485,4.749,3.926,3.926,0,0,0-1.594,2.872c.1,1.5,1.7,2.375,3.087,2.962l5.618,2.378c.682-.961.058-2.286-.647-3.23s-1.541-2.036-1.23-3.172c.355-1.3,1.936-1.738,3.261-1.961,2.159-.364,7.984-.335,7.284-3.815C691.172,228.39,684.87,230.5,682.7,231.708Z" transform="translate(-264.539 -95.801)" fill="#3f3d56"/>
  <path id="Path_576" data-name="Path 576" d="M685.624,593.358a5.36,5.36,0,0,0,.34,4.724,4.786,4.786,0,0,0,4.913,1.7,8.85,8.85,0,0,0,4.561-2.933,15.71,15.71,0,0,0,2.624-4.023,31.4,31.4,0,0,0,1.945-7.115l1.744-9.158c.39-2.047.375-8.321-3.387-6.277-1.028.558-3.407,4.968-4.484,6.218-1.941,2.254-2.2,4.44-3.22,7.171C689.379,587.082,686.807,589.933,685.624,593.358Z" transform="translate(-268.589 -225.399)" fill="#3f3d56"/>
  <path id="Path_577" data-name="Path 577" d="M1003.719,682.548a27.427,27.427,0,0,1-3.574-1.7,30.13,30.13,0,0,0-1.812,9.876l8.423-4.766c1.267-.717,2.7-1.713,2.676-3.169a1,1,0,0,0-.466-.912,1.136,1.136,0,0,0-.591-.069,14.258,14.258,0,0,0-3.566,1.146,4.353,4.353,0,0,1-3.637.019" transform="translate(-388.005 -267.726)" fill="#3f3d56"/>
  <path id="Path_578" data-name="Path 578" d="M1070.458,686.356a18.243,18.243,0,0,0-2.7.969c-1.933.983-3.248,2.851-4.987,4.147a19.786,19.786,0,0,1-5.635,2.582,1.351,1.351,0,0,0,.315,1.991,3.907,3.907,0,0,0,2.225.5c2.043.045,4.2.065,5.986-.922a18.887,18.887,0,0,0,2.818-2.237,29.853,29.853,0,0,1,7.094-4.012,8.138,8.138,0,0,0,2.473-1.478c1.563-1.54,1.673-3.916-.581-4.44C1075.642,683.032,1072.19,685.8,1070.458,686.356Z" transform="translate(-410.31 -268.705)" fill="#3f3d56"/>
  <path id="Path_579" data-name="Path 579" d="M1106.008,663.891a7.026,7.026,0,0,0-2.15-5.757c-.023,2.12-.088,4.379-1.28,6.133-.85,1.249-2.182,2.093-3.113,3.283s-1.344,3.076-.252,4.12a4.091,4.091,0,0,0,2.425.835c2.174.256,4.689.4,6.214-1.172.832-.857,1.237-2.127,2.252-2.757a2.737,2.737,0,0,0,.988-.707c.419-.666-.247-1.544-1-1.784s-1.575-.127-2.329-.355-1.444-1.075-1.058-1.76" transform="translate(-426.232 -259.064)" fill="#3f3d56"/>
  <path id="Path_580" data-name="Path 580" d="M1033.185,537.26a9.771,9.771,0,0,1-3.486.206c-1.935-.356-3.441-1.814-5-3.01a22.07,22.07,0,0,0-12.9-4.505c-4.245-.08-8.53,1.07-12.7.268a5.009,5.009,0,0,0,2.952,3.327c1.383.675,2.91,1.015,4.3,1.677a10.267,10.267,0,0,1,4.973,5.174,14.6,14.6,0,0,0,1.407,3.094c1.386,1.865,4.013,2.274,6.332,2.122,3.023-.2,6.18-1.068,8.992.058,2.151.862,3.691,2.745,5.488,4.209s4.327,2.551,6.389,1.494a10.562,10.562,0,0,1-7.308-10.163c2.023.186,7.85.114,7.536-3.324C1039.9,534.973,1034.923,536.946,1033.185,537.26Z" transform="translate(-388.297 -210.173)" fill="#3f3d56"/>
  <path id="Path_581" data-name="Path 581" d="M974.167,573.94c.359-1.97,2.324-3.71,1.712-5.617a3.457,3.457,0,0,0-3.337-2c-1.385-.033-2.745.38-4.129.419a20.127,20.127,0,0,0-2.7.038c-2.748.452-4.442,3.332-7.032,4.356-1.575.623-3.344.5-4.982.934-3.718.977-6.07,4.49-8.669,7.323a30.936,30.936,0,0,1-15.7,9.157c-2.114.49-4.386.8-6.066,2.176-2.225,1.818-2.773,4.935-3.268,7.765a128.248,128.248,0,0,1-6.244,22.919l8.828,1.127a12,12,0,0,0,5.035-.073,14.62,14.62,0,0,0,3.312-1.764,33.061,33.061,0,0,1,12.916-4.662,13.712,13.712,0,0,1,6.9.484,6.42,6.42,0,0,1,4.212,5.134,5.423,5.423,0,0,1,5.42,1.318,9.422,9.422,0,0,1,2.588,5.166c.233,1.208.465,2.655,1.586,3.161.914.413,1.963-.032,2.963-.112,3.394-.272,6.21,3.686,9.546,3,3.578-.731,4.456-6.089,7.946-7.162,2-.617,4.816.133,5.776-1.732.846-1.644-.842-3.54-.668-5.38.214-2.266,2.887-3.228,4.948-4.195,7.1-3.333,10.475-12.895,7.032-19.946-2.039-4.178-6.053-7.467-6.794-12.057-.57-3.531.822-7.649-1.43-10.429-1.145-1.414-3.085-2.195-3.766-3.882a19.134,19.134,0,0,1-.487-3.389c-.231-1.122-1.21-2.3-2.318-2-3.216.844-4.242,10.779-5.964,13.193C978.714,580.878,973.338,578.461,974.167,573.94Z" transform="translate(-355.744 -223.15)" fill="#f36928"/>
  <path id="Path_582" data-name="Path 582" d="M912.5,547.6a5.178,5.178,0,0,0-3.352-.171c-1.053.44-1.668,1.986-.823,2.754,6.612-.258,13.264-.513,19.82.385,7.553,1.034,15.028,3.6,22.615,2.843a115.079,115.079,0,0,0-13.192-3.061l-7.427-1.419a57.434,57.434,0,0,0-6.031-.932C919.876,547.644,916.67,548.764,912.5,547.6Z" transform="translate(-353.525 -216.755)" fill="#3f3d56"/>
  <path id="Path_583" data-name="Path 583" d="M922.118,505.7c-.549-.046-1.229-.085-1.513.387-.271.451.039,1.047-.107,1.552-.2.691-1.1.867-1.817.773a3.481,3.481,0,0,0-2.115.024,1.793,1.793,0,0,0-.693,2.036,5.243,5.243,0,0,0,1.223,1.949,19.918,19.918,0,0,0,3.172,3.182c2.272,1.677,5.351,2.486,6.782,4.921a3.266,3.266,0,0,0,.906,1.219,2.518,2.518,0,0,0,2.323-.234l2.593-1.185a2.947,2.947,0,0,0,1.212-.824c.592-.8.229-1.947-.269-2.813a4.834,4.834,0,0,1-1.027-2.755c.19-1.77,2.466-2.447,3.4-3.962s.329-3.494.438-5.285c.127-2.095,1.444-4.82-.674-6.385-1.8-1.33-3.521-.1-4.813,1.368C928.417,502.763,927.128,506.117,922.118,505.7Z" transform="translate(-356.521 -197.885)" fill="#3f3d56"/>
  <path id="Path_584" data-name="Path 584" d="M951.173,456.248c.885,1.7,2.731,2.707,3.7,4.357,1.046,1.789.927,4.1,2.062,5.836,1.165,1.779,3.509,2.724,4.162,4.748.713,2.21-.9,4.9.385,6.826a2.865,2.865,0,0,0,4.2.386,3.083,3.083,0,0,0-.127-4.3c-.764-.7-1.86-1-2.5-1.81a3.8,3.8,0,0,1-.647-1.575,10.313,10.313,0,0,1,.162-4.942,2.2,2.2,0,0,0,.124-1.293c-.287-.834-1.417-.894-2.21-1.281-1.8-.879-1.757-3.421-1.443-5.4-.209,1.318-4.9-.923-5.394-1.67-.976-1.483-.445-4.343-.638-5.981A4.656,4.656,0,0,0,951.173,456.248Z" transform="translate(-369.835 -179.737)" fill="#3f3d56"/>
  <path id="Path_585" data-name="Path 585" d="M872.4,501.2c-.866-.97-2.171-1.984-3.332-1.4a2.11,2.11,0,0,0-.783,2.6,5.726,5.726,0,0,0,1.89,2.253,65.958,65.958,0,0,1,7.138,6.118c3.779,4.152,5.78,9.755,9.89,13.581a5.546,5.546,0,0,0,3.114,1.685A2.42,2.42,0,0,0,893,524.192a3.527,3.527,0,0,0-1.243-2.594c-1.6-1.736-3.344-3.335-4.851-5.149a4.327,4.327,0,0,1-1.24-2.59c-.008-.977.883-2,1.83-1.757-1.151-.294-2-2.212-3.694-2.572-1.412-.3-1.753.573-3.434-.148C877.159,508.007,874.645,503.715,872.4,501.2Z" transform="translate(-338.346 -198.61)" fill="#3f3d56"/>
  <path id="Path_586" data-name="Path 586" d="M986.3,348.829a26.525,26.525,0,0,1-2.707-.967c-2.38-.714-5.528,1.035-5.211,3.5.211,1.637,1.734,2.741,2.576,4.161,1.248,2.106.915,4.777.26,7.135a5.58,5.58,0,0,1-.9,2.03,6.875,6.875,0,0,1-2.133,1.534,28.52,28.52,0,0,0-8.345,7.089,2.043,2.043,0,0,0-.5.95c-.114.832.723,1.438,1.2,2.132,1.05,1.541.291,3.615.395,5.478a1.549,1.549,0,0,0,.653,1.359c.633.322,1.383-.225,1.726-.846,1.139-2.063.281-5.374,2.417-6.369.4-.188.894-.267,1.163-.622.428-.563.015-1.4.232-2.07.325-1.01,1.707-1.056,2.768-1.011a15.711,15.711,0,0,0,5.4-.718,3.593,3.593,0,0,0,1.786-1.035,3.887,3.887,0,0,0,.454-2.943,39.9,39.9,0,0,0-4.713-14.382c1.876.24,3.918.447,5.537-.531.907-.548,1.994-2.185,1.544-3.3C989.178,347.64,987.892,349.124,986.3,348.829Z" transform="translate(-376.94 -140.663)" fill="#3f3d56"/>
  <path id="Path_587" data-name="Path 587" d="M560.376,386.293a7.226,7.226,0,0,1,.051,3.632,2.484,2.484,0,0,1-2.809,1.773c-.91-.276-1.435-1.191-2.081-1.888-3.593-3.879-11.7-1.633-13.919-6.432-.906-1.958-.29-4.3-.908-6.372a5.672,5.672,0,0,0-5.744-3.9,11.8,11.8,0,0,0-3.305.987,83.343,83.343,0,0,1-21.9,5.477,17.994,17.994,0,0,0-4.208.766c-3.085,1.119-5.194,3.979-6.694,6.9s-2.608,6.079-4.619,8.672c-2.114,2.725-5.076,4.634-7.84,6.7a8,8,0,0,0-2.586,2.71,8.479,8.479,0,0,0-.519,4.028l.565,16.605a15,15,0,0,0,1.12,6.259c1.194,2.387,3.552,3.95,5.188,6.059a11.867,11.867,0,0,1,2.462,7.578c-.035,1.1-.144,2.4.712,3.09a3.131,3.131,0,0,0,1.751.5l22.462,1.838c3.951.323,8.33.855,10.91,3.865,1.218,1.421,2.2,3.464,4.06,3.616a15.085,15.085,0,0,0,2.378-.326c2.019-.16,3.792,1.372,4.911,3.06A13.574,13.574,0,0,1,542,470.2c-.183,1.925-.78,3.8-.909,5.726-.49,7.341,5.734,13.72,5.854,21.076.071,4.327-1.983,8.37-3.986,12.207,3.232,4.9.586,11.417,1.872,17.142,1.221,5.431,5.749,9.683,6.878,15.134.517,2.5.546,5.566,2.747,6.852a6.262,6.262,0,0,0,3.108.622,40.977,40.977,0,0,0,18.66-4.248c2.721-1.35,5.541-3.366,6.016-6.366.383-2.419-.844-5.126.4-7.233,1.472-2.484,5.242-2.287,7.407-4.2,3.513-3.1.774-9.007,2.2-13.469,1.279-4.011,5.683-6.142,7.866-9.742a17.309,17.309,0,0,0,1.828-4.954,70.675,70.675,0,0,0,1.86-12.636,75.717,75.717,0,0,1,.572-7.739c2.354-14.622,16.809-24.414,21.5-38.461.448-1.342.659-3.128-.535-3.887a3.418,3.418,0,0,0-2.273-.238l-10.355,1.305a7.128,7.128,0,0,1-3.83-.22c-1.181-.534-2.028-2.028-1.4-3.163,1.759-3.186-1.859-7.211-3.466-10.476a154.583,154.583,0,0,0-15.394-24.964,2.538,2.538,0,0,1-.675-1.465l2.939.1c-.992-3.56-2.629-7.455-6.087-8.757-1.949-.734-4.107-.48-6.186-.366C572.655,388.1,566.27,387.2,560.376,386.293Z" transform="translate(-191.558 -150.348)" fill="#f36928"/>
  <path id="Path_588" data-name="Path 588" d="M590.377,249.889c1.558,1.655,3.3,3.41,5.559,3.7,3.983.51,6.846-3.609,8.669-7.186a3.511,3.511,0,0,0,3.664,3.248,7.232,7.232,0,0,0,2.756-1.077,54.291,54.291,0,0,1,25.721-6.649,2.778,2.778,0,0,1,2.121-3.054c1.828-.362,3.475,1.218,4.357,2.86s1.432,3.545,2.833,4.774,4.114,1.175,4.667-.6c.531-1.709-1.249-3.166-2.727-4.173s-3.038-2.872-2.042-4.358c7.555-1.672,15.157-3.351,22.888-3.683a9.585,9.585,0,0,0,3.853-.664,3,3,0,0,0,1.8-3.166,8.725,8.725,0,0,1-9.1-3.434c10.727-.885,22.136-1.64,31.643,3.408,1.141,2.449-4.673,4.487-3.118,6.7a2.816,2.816,0,0,0,2.352.8c6.606.123,13.251.243,19.782-.754a26.488,26.488,0,0,1,7.194-.583c3.992.492,7.406,3.156,11.333,4.024a6.064,6.064,0,0,0,4.738-.564c1.347-.93,1.927-3.046.822-4.255,3.7-3.624,9.834-2.726,14.712-.991s9.5,4.533,14.661,4.919c3.7.277,7.456-.719,11.114-.086,2.3.4,4.438,1.42,6.685,2.049,4.249,1.188,8.744.937,13.156.995a92.185,92.185,0,0,1,32.851,6.528,9.767,9.767,0,0,1,3.652,2.158,3.581,3.581,0,0,1,.815,3.929l-10.809-1.579c1.018,2,3.653,2.346,5.792,3.038s4.358,3.054,3.072,4.9c-2.318-.738-4.419,1.58-5.59,3.712s-2.6,4.686-5.028,4.816c-2.175.116-4.807-1.736-6.225-.082a42.451,42.451,0,0,1,5,8c1.4,2.919,2.4,6.6.505,9.222a2.39,2.39,0,0,1-1.278.991c-1.546.392-2.551-1.5-3.66-2.647-1.4-1.445-3.511-1.854-5.4-2.532s-3.886-2.011-4.034-4.015a8.019,8.019,0,0,1,1.051-3.56,13.714,13.714,0,0,0,1.042-6.151,6.986,6.986,0,0,0-1.8-4.634,3.6,3.6,0,0,0-4.618-.474c-.609.505-1.1,1.313-1.887,1.344-1.4.053-2.469-2.382-3.593-1.55a3.818,3.818,0,0,1-.519,2.553c-3.353,2.916-8.5,1.683-12.827,2.713a24.076,24.076,0,0,0-5.852,2.556,3.766,3.766,0,0,0-1.673,1.4,2.59,2.59,0,0,0,1.006,3.089,7.991,7.991,0,0,0,3.318,1.133c5.27,1,10.617,2.543,14.778,5.928s6.889,8.981,5.573,14.18l-10.393-9.931q.592,6.255.672,12.543a5.639,5.639,0,0,1-.329,2.413c-.741,1.636-2.749,2.187-4.509,2.548a3.532,3.532,0,0,0-2.711,4.525c.625,2.038,2.184,3.627,3.611,5.21s2.832,3.382,3.019,5.506-1.415,4.517-3.542,4.369c-1.612-.112-2.808-1.555-3.5-3.017s-1.1-3.091-2.13-4.334c-3.127-3.761-10.15-2.15-12.952-6.159a6.335,6.335,0,0,0-1.31,6.029c1.3-.816,3.087-.058,4.066,1.128a27.8,27.8,0,0,1,2.21,4.037c1.038,1.8,2.689,3.389,2.834,5.459a17.834,17.834,0,0,0,.039,2.348c.257,1.254,1.317,2.154,2.052,3.2,1.71,2.439,1.626,5.789.523,8.557a26.389,26.389,0,0,1-5.044,7.321,88.309,88.309,0,0,1-10.982,11.06A11.538,11.538,0,0,0,762.647,363a3.4,3.4,0,0,0,.35,4.1c-.794.04-2.217.43-3.01.47a69.973,69.973,0,0,1-.182-9.574c-3.132-1.5-6.5,2.523-6.1,5.974s2.9,6.219,4.677,9.2c1.3,2.183,2.265,4.729,1.831,7.232s-2.668,4.812-5.2,4.592c-4.026-.351-5.709-6.13-9.7-6.792a1.629,1.629,0,0,0-1.049.1c-.592.325-.695,1.117-.728,1.791-.163,3.309-.3,6.749.987,9.8,1.89,4.463,6.771,8.212,5.747,12.949-5.516-2.564-8.385-8.751-9.687-14.693s-1.519-12.181-3.854-17.8c-1.773,2.272-5.5.394-7.118-1.99-1.535-2.26-2.481-4.874-3.971-7.164s-3.772-4.341-6.5-4.467c-2.861-.132-5.343,1.831-7.525,3.687a17.543,17.543,0,0,0-4.686,5.22c-1.526,3.069-1.127,6.687-1.2,10.113-.08,3.7-.865,7.613-3.389,10.325s-7.185,3.657-9.97,1.212a11.236,11.236,0,0,1-2.785-5.012,245.393,245.393,0,0,1-7.54-26.915c-.468,2.079-2.293,4.758-4.037,3.534a3.615,3.615,0,0,1-.93-1.2c-3.253-5.513-9.276-8.82-15.363-10.8s-12.49-2.908-18.509-5.087a46.883,46.883,0,0,1-9.6-4.783,7.551,7.551,0,0,0-.461,7.724,6.153,6.153,0,0,0,6.943,2.905c1.336-.427,2.465-1.355,3.791-1.813s3.106-.233,3.686,1.044c.555,1.223-.284,2.7.132,3.979.634,1.945,3.567,2.094,4.592,3.864.763,1.317.135,3.065-.954,4.128a17.275,17.275,0,0,1-3.873,2.385c-4.315,2.4-7.384,6.5-11.156,9.683s-9.093,5.514-13.587,3.47c1.071-5.425-5.391-9.408-6.58-14.809-.391-1.778-.188-3.666-.747-5.4-.809-2.508-3.034-4.232-4.859-6.133a24.071,24.071,0,0,1-6.6-17.513c.1-2.232.509-4.5,0-6.676s-2.31-4.281-4.542-4.183c-5.1.225-11.52.6-14.195-3.741-.955-1.551-1.37-3.823.01-5.011.974-.838,2.411-.759,3.689-.634l11.486,1.13c2.687.264,5.591.482,7.9-.922s3.3-5.132,1.17-6.785c-1.56-1.207-4.354-1.142-4.807-3.061-.378-1.6,1.392-3.413.436-4.749-.685-.958-2.226-.692-3.16.026s-1.611,1.768-2.656,2.312c-1.833.954-4.023.046-5.995-.571s-4.615-.669-5.572,1.162c-1.07,2.048.949,4.732-.113,6.785-1.4,2.714-6.157,1.169-8.128,3.5-2.262,2.678,1.539,6.672.776,10.094a6.284,6.284,0,0,1-6.191-.348,6.013,6.013,0,0,1-2.6-5.6c.189-1.539.991-3.111.454-4.565a5.356,5.356,0,0,0-2.713-2.483l-11.162-6.168c-1.036,1.922.274,4.306,1.912,5.75s3.691,2.531,4.767,4.432a5.817,5.817,0,0,1-2.189,7.669,1.343,1.343,0,0,1-1.106.193,1.543,1.543,0,0,1-.718-.965c-1.969-5.04-4.926-10.009-9.654-12.642s-11.52-2.091-14.62,2.344c-.736,1.053-1.231,2.254-1.872,3.368-3.408,5.917-10.714,8.719-17.539,8.536a3.483,3.483,0,0,1-1.913-.45c-1.1-.762-1.054-2.379-.885-3.709l.717-5.644a4.484,4.484,0,0,1,1.249-3.094c1.264-1,3.089-.368,4.7-.391a5.955,5.955,0,0,0,5.405-4.172,6.711,6.711,0,0,0-1.868-6.674c-.738-.693-1.729-1.564-1.339-2.5a2.066,2.066,0,0,1,1.449-.975c2.893-.84,5.949-1.06,8.793-2.051s5.6-3.019,6.276-5.955c.206-.9.3-1.99,1.108-2.436a3.325,3.325,0,0,1,1.281-.262,6.234,6.234,0,0,0,5.347-6.5c1.363-.953,3.273-.252,4.592.761s2.483,2.352,4.088,2.788c2.99.814,5.88-1.834,8.979-1.846,1.3-.005,2.652.456,3.878.014,1.243-.448,1.985-1.685,2.939-2.6s2.628-1.472,3.509-.487l-.75-5.556a10.923,10.923,0,0,0,8.89-1.607l-9.695-3.276a2.107,2.107,0,0,1-.907-.485c-.7-.759,0-1.942.568-2.8,1.371-2.064,1.6-5.464-.653-6.491-1.539-.7-3.305.141-4.783.964l-7.076,3.945c-.225,1.345,1.42,2.107,2.439,3.013a4.09,4.09,0,0,1-2.667,7.146,5.1,5.1,0,0,1,.91,4.32l-4.761.342a2.063,2.063,0,0,1-1.544-.3c-.509-.452-.44-1.245-.558-1.915a4.157,4.157,0,0,0-3.488-3.044,12.266,12.266,0,0,0-4.875.45,2.909,2.909,0,0,1-2.1-.048,2.092,2.092,0,0,1-.829-1.046,5.375,5.375,0,0,1,1.082-5.161,28.638,28.638,0,0,1,4.059-3.733,23.658,23.658,0,0,0,7.034-10.911c2.621-1.1,5.334-2.59,7.955-3.688a24.342,24.342,0,0,1,13.084-2.535l8.876.17a21.282,21.282,0,0,1,7.757,1.116c2.43,1,4.565,3.169,4.733,5.792a1.778,1.778,0,0,1-.569,1.625,2.1,2.1,0,0,1-1.122.253C593.873,249.193,592.828,249.8,590.377,249.889Z" transform="translate(-203.321 -94.161)" fill="#f36928"/>
  <path id="Path_589" data-name="Path 589" d="M518.469,307.912a2.6,2.6,0,0,0,.708-2.612,4.858,4.858,0,0,0-5.03.95,8.478,8.478,0,0,0-1.348,1.782c-1.166,1.9-2.2,4.176-1.522,6.3a1.79,1.79,0,0,0,.819,1.121,2.155,2.155,0,0,0,.955.15,32.012,32.012,0,0,0,3.844-.237c.783-.1,1.693-.317,2-1.046.4-.958-.565-2.042-.284-3.04a3.321,3.321,0,0,1,.82-1.174,1.553,1.553,0,0,0,.484-1.3c-.113-.468-.831-.734-1.089-.327" transform="translate(-202.158 -124.367)" fill="#3f3d56"/>
  <path id="Path_590" data-name="Path 590" d="M530.827,295.591a10.754,10.754,0,0,0-3.483-.219,1.519,1.519,0,0,0-.742.169,1.238,1.238,0,0,0-.457.662,3.291,3.291,0,0,0,1.916,4.032,4.115,4.115,0,0,1,1.188.477c.985.764.357,2.327.544,3.559.209,1.384,1.549,2.546,1.3,3.925-.194,1.086-1.353,1.946-1.167,3.033.2,1.139,1.641,1.481,2.792,1.572a3.512,3.512,0,0,0,1.978-.227,3.063,3.063,0,0,0,1.248-1.807,11.586,11.586,0,0,0,.584-4.362,4.137,4.137,0,0,0-.492-1.925,10.749,10.749,0,0,0-1.149-1.316C532.682,300.6,535.006,296.769,530.827,295.591Z" transform="translate(-207.852 -120.684)" fill="#3f3d56"/>
  <path id="Path_591" data-name="Path 591" d="M706.48,507.465s-169-97.01-241.76-78.629c0,0-154.194,16.594-172.065,53.1,0,0-49.015-153.173-66.886-158.279" transform="translate(-93.345 -131.493)" fill="none" stroke="#6c63ff" stroke-width="2" opacity="0.8"/>
  <path id="Path_592" data-name="Path 592" d="M292.656,481.307c28.337-75.566,283.626-159.3,283.626-159.3-36.251,9.19-111.561,106.2-111.561,106.2s-159.3-115.9-238.95-105.179c0,0,350.766,11.488,480.709,183.808" transform="translate(-93.345 -130.864)" fill="none" stroke="#6c63ff" stroke-width="2" opacity="0.8"/>
  <circle id="Ellipse_50" data-name="Ellipse 50" cx="7.403" cy="7.403" r="7.403" transform="translate(125.022 184.761)" fill="#2f2e41"/>
  <circle id="Ellipse_51" data-name="Ellipse 51" cx="7.403" cy="7.403" r="7.403" transform="translate(191.908 343.04)" fill="#2f2e41"/>
  <circle id="Ellipse_52" data-name="Ellipse 52" cx="7.403" cy="7.403" r="7.403" transform="translate(475.533 183.74)" fill="#2f2e41"/>
  <circle id="Ellipse_53" data-name="Ellipse 53" cx="7.403" cy="7.403" r="7.403" transform="translate(605.73 368.569)" fill="#2f2e41"/>
  <circle id="Ellipse_54" data-name="Ellipse 54" cx="7.403" cy="7.403" r="7.403" transform="translate(363.971 289.94)" fill="#2f2e41"/>
</svg>
