<svg id="Component_8_1" data-name="Component 8 – 1" xmlns="http://www.w3.org/2000/svg" width="374.459" height="417.642" viewBox="0 0 374.459 417.642">
  <path id="Path_548" data-name="Path 548" d="M446.168,286.452a79.751,79.751,0,0,1-8.766,2.772c-3.927.957-6.144,1.4-9.935-.07-.133-.052-.26-.1-.38-.153a40.265,40.265,0,0,1-24.506-36.509c-.019-.268-.019-.549-.019-.824a39.187,39.187,0,0,1,.189-3.962,40.037,40.037,0,0,1,.859-5.328l-.038-.007a14.642,14.642,0,0,1-3.858-11.755,19.429,19.429,0,0,1,8.777-14.529,30.738,30.738,0,0,1,12.761-4.5,32.34,32.34,0,0,1,3.669-.213h11.517a49.764,49.764,0,0,1,7.23-1.14h.019c23.18-1.923,41.46,13.445,39.755,32.142-.013.021-.032.041-.044.062-.492.8-.928,1.566-1.313,2.293-.373.68-.688,1.332-.96,1.95-2.115,4.779,7.937,78.926,4.332,80.052-2.052.639-10.324-54.536-8.84-44.044C478.486,295.846,456.846,282.5,446.168,286.452Z" transform="translate(-339.348 -193.189)" fill="#2f2e41"/>
  <path id="Path_549" data-name="Path 549" d="M164.478,391.424l32.132,68.454L73,447.36l25.8-65.715Z" transform="translate(-22.739 -164.126)" fill="#ffb6b6"/>
  <path id="Path_550" data-name="Path 550" d="M535.929,664.607a180.043,180.043,0,0,1-66.765,8.942L459.328,657.6s-.412,5.941-1.026,15.023a173.685,173.685,0,0,1-31.742-6.729c-19.623-6.136-38.018-15.644-56.664-24.412-3.777-22.513-5.194-57.229,15.686-77.439l112.384,20.594S516,598.122,511.175,602.952s-5.571,4.077-2.4,7.246,10.017,7.407,10.087,10.178C518.889,621.458,526.575,641.081,535.929,664.607Z" transform="translate(-329.688 -300.06)" fill="#2f2e41"/>
  <path id="Path_551" data-name="Path 551" d="M458.037,322.007,430.885,323.9l-17.549,16.958-6.146,1.1a22.914,22.914,0,0,0-18.852,23.906c1.264,21.419,4.095,53.423,10.011,63.806,9.174,16.1,16.751,11.049,9.174,16.1s-12.664,1.082-9.174,9.065-4.718,18.223-4.718,18.223l-3.268,3.268,3.466,1.42,110.434,14.37s-9.549-42.933-3.577-53.48,20.451-42.427,7.529-54.9L495.579,339.27l-21.734-6.41Z" transform="translate(-335.923 -226.986)" fill="#f36928"/>
  <path id="Path_552" data-name="Path 552" d="M696.086,545.565a12.552,12.552,0,0,1-11.924-14.943l-51.8-35.083,6.181-16.714,61.222,42.118a12.535,12.535,0,0,1-3.677,24.622Z" transform="translate(-409.61 -274.332)" fill="#ffb6b6"/>
  <path id="Path_553" data-name="Path 553" d="M510.794,342.779l-7.528,2.981,40.155,78.425,83.127,56.662,11.983-20.252-63.277-54.656-25.333-48.586A31.18,31.18,0,0,0,510.794,342.779Z" transform="translate(-370.634 -232.595)" fill="#f36928"/>
  <ellipse id="Ellipse_30" data-name="Ellipse 30" cx="27.264" cy="27.264" rx="27.264" ry="27.264" transform="translate(79.861 33.596)" fill="#ffb6b6"/>
  <path id="Path_554" data-name="Path 554" d="M470.172,245.026c-.455.24-.9.461-1.358.682-.474.227-.947.455-1.427.669-9.124,4.136-16.556,4.6-21.065-1.351a25.248,25.248,0,0,0-2.077-9.08,14.592,14.592,0,0,1-2.406,9.08h-9.08c-9.352,6.207-14.15,11.909-7.659,32.285.423,1.339,3.321,48.9,4.148,52.554-14.157-5.43-26.369-63.087-26.678-78.279-.019-.246-.019-.505-.019-.758a33.2,33.2,0,0,1,.19-3.643,34.1,34.1,0,0,1,.859-4.9l-.038-.006a12.8,12.8,0,0,1-3.858-10.81,31.18,31.18,0,0,1,8.663-7.767,55.289,55.289,0,0,1,9.484-3.561c.082-.019.152-.038.234-.057,1-.272,2.021-.518,3.044-.732a57.156,57.156,0,0,1,6.384-.966c.158-.006.309-.019.448-.019a4.784,4.784,0,0,1,2.437.669c.006,0,.006.006.019.006a4.81,4.81,0,0,1,2.343,4.092h10.116c.372,0,.745.013,1.118.032,14.087.562,25.409,6.586,26.135,20.433C470.159,244.079,470.172,244.546,470.172,245.026Z" transform="translate(-339.338 -195.696)" fill="#2f2e41"/>
  <ellipse id="Ellipse_31" data-name="Ellipse 31" cx="17.962" cy="17.962" rx="17.962" ry="17.962" transform="translate(53.067 14.503)" fill="#2f2e41"/>
  <path id="Path_555" data-name="Path 555" d="M435.031,210.047c-2.041,9.708-12.108,15.514-21.74,13.139a17.962,17.962,0,0,1-13.139-21.74c2.375-9.632,14.064-6.855,21.74-13.139C432.751,179.418,437.783,196.955,435.031,210.047Z" transform="translate(-339.343 -185.891)" fill="#2f2e41"/>
  <path id="Path_556" data-name="Path 556" d="M392.293,536.27c15.309-62.428,45.641-116.086,95.876-158.126a14.133,14.133,0,0,1,19.391-4.752l56.666,34.358L626.979,445.8a14.133,14.133,0,0,1,4.752,19.391c-19.174,64.058-47.892,119.643-95.875,158.126a14.133,14.133,0,0,1-19.391,4.752L397.046,555.661A14.133,14.133,0,0,1,392.293,536.27Z" transform="translate(-336.513 -241.884)" fill="#fe9d6a"/>
  <path id="Path_557" data-name="Path 557" d="M413.519,557.309a14.133,14.133,0,0,1-4.752-19.391c15.308-62.428,45.641-116.086,95.875-158.126a13.951,13.951,0,0,1,5.267-4.976l-2.35-1.425a14.134,14.134,0,0,0-19.391,4.752c-50.235,42.04-80.568,95.7-95.876,158.126a14.133,14.133,0,0,0,4.752,19.391l119.42,72.407a14.07,14.07,0,0,0,14.123.224Z" transform="translate(-336.513 -241.884)" opacity="0.2"/>
  <path id="Path_558" data-name="Path 558" d="M588.357,562.374l-80.16-48.3a5.615,5.615,0,1,1,5.8-9.619l80.16,48.3a5.615,5.615,0,1,1-5.8,9.619Z" transform="translate(-371.302 -281.827)" fill="#fff"/>
  <path id="Path_559" data-name="Path 559" d="M548.592,486.912l-17.635-10.626a5.615,5.615,0,1,1,5.766-9.638l.03.018,17.635,10.626a5.615,5.615,0,1,1-5.8,9.619Z" transform="translate(-378.169 -270.415)" fill="#fff"/>
  <path id="Path_560" data-name="Path 560" d="M570.1,592.661l-80.16-48.3a5.615,5.615,0,0,1,5.784-9.626l.011.007,80.16,48.3a5.615,5.615,0,0,1-5.8,9.619Z" transform="translate(-365.79 -290.97)" fill="#fff"/>
  <ellipse id="Ellipse_32" data-name="Ellipse 32" cx="23.413" cy="23.413" rx="23.413" ry="23.413" transform="translate(203.821 142.651)" fill="#f36928"/>
  <ellipse id="Ellipse_33" data-name="Ellipse 33" cx="50.042" cy="50.042" rx="50.042" ry="50.042" transform="translate(136.835 316.859)" fill="#fff"/>
  <path id="Path_561" data-name="Path 561" d="M559.026,740.269a50.74,50.74,0,1,1,50.74-50.74,50.74,50.74,0,0,1-50.74,50.74Zm0-100.084a49.344,49.344,0,1,0,49.344,49.344A49.344,49.344,0,0,0,559.026,640.185Z" transform="translate(-372.15 -322.628)" fill="#3f3d56"/>
  <path id="Path_562" data-name="Path 562" d="M562.879,726.254a5.565,5.565,0,0,1-4.453-2.227l-13.652-18.2a5.566,5.566,0,0,1,8.906-6.679l8.932,11.908,22.94-34.41a5.567,5.567,0,1,1,9.263,6.176l-27.3,40.957a5.569,5.569,0,0,1-4.477,2.477Z" transform="translate(-382.83 -333.308)" fill="#f36928"/>
  <ellipse id="Ellipse_34" data-name="Ellipse 34" cx="3.614" cy="2.514" rx="3.614" ry="2.514" transform="translate(344.456 108.61) rotate(-4.887)" fill="#fff"/>
  <ellipse id="Ellipse_35" data-name="Ellipse 35" cx="3.614" cy="2.514" rx="3.614" ry="2.514" transform="translate(366.83 101.02) rotate(-4.887)" fill="#3f3d56"/>
  <ellipse id="Ellipse_36" data-name="Ellipse 36" cx="3.614" cy="2.514" rx="3.614" ry="2.514" transform="translate(333.85 91.54) rotate(-4.887)" fill="#ff6584"/>
  <ellipse id="Ellipse_37" data-name="Ellipse 37" cx="1.589" cy="2.284" rx="1.589" ry="2.284" transform="translate(325.94 86.637) rotate(-12.732)" fill="#e6e6e6"/>
  <ellipse id="Ellipse_38" data-name="Ellipse 38" cx="1.589" cy="2.284" rx="1.589" ry="2.284" transform="translate(319.257 73.284) rotate(-12.732)" fill="#3f3d56"/>
  <ellipse id="Ellipse_39" data-name="Ellipse 39" cx="1.589" cy="2.284" rx="1.589" ry="2.284" transform="translate(351.317 92.037) rotate(-12.732)" fill="#e6e6e6"/>
  <ellipse id="Ellipse_40" data-name="Ellipse 40" cx="1.589" cy="2.284" rx="1.589" ry="2.284" transform="translate(341.543 100.149) rotate(-12.732)" fill="#ff6584"/>
  <ellipse id="Ellipse_41" data-name="Ellipse 41" cx="1.589" cy="2.284" rx="1.589" ry="2.284" transform="translate(359.335 106.757) rotate(-12.732)" fill="#3f3d56"/>
  <ellipse id="Ellipse_42" data-name="Ellipse 42" cx="2.514" cy="3.614" rx="2.514" ry="3.614" transform="translate(248.492 10.533) rotate(-75.779)" fill="#fff"/>
  <ellipse id="Ellipse_44" data-name="Ellipse 44" cx="2.514" cy="3.614" rx="2.514" ry="3.614" transform="translate(252.925 30.134) rotate(-75.779)" fill="#ff6584"/>
  <ellipse id="Ellipse_45" data-name="Ellipse 45" cx="2.284" cy="1.589" rx="2.284" ry="1.589" transform="translate(262.645 38.781) rotate(-83.624)" fill="#e6e6e6"/>
  <ellipse id="Ellipse_46" data-name="Ellipse 46" cx="2.284" cy="1.589" rx="2.284" ry="1.589" transform="translate(264.588 53.585) rotate(-83.624)" fill="#3f3d56"/>
  <ellipse id="Ellipse_47" data-name="Ellipse 47" cx="2.284" cy="1.589" rx="2.284" ry="1.589" transform="translate(240.434 25.372) rotate(-83.624)" fill="#e6e6e6"/>
  <ellipse id="Ellipse_48" data-name="Ellipse 48" cx="2.284" cy="1.589" rx="2.284" ry="1.589" transform="translate(252.324 20.905) rotate(-83.624)" fill="#ff6584"/>
  <ellipse id="Ellipse_49" data-name="Ellipse 49" cx="2.284" cy="1.589" rx="2.284" ry="1.589" transform="translate(237.676 8.838) rotate(-83.624)" fill="#3f3d56"/>
  <path id="Path_564" data-name="Path 564" d="M384.477,570.631a13.314,13.314,0,0,1-6.307-19.271L339.7,497.285l12.341-14.317,45.22,64.559a13.3,13.3,0,0,1-12.785,23.1Z" transform="translate(-321.251 -275.583)" fill="#ffb6b6"/>
  <path id="Path_565" data-name="Path 565" d="M377.382,362.506h0a9.494,9.494,0,0,0-12.134,2.136l-51.976,72.691,48.168,68.412L380.288,485.5l-29.319-46.074,38.966-37.1a31.18,31.18,0,0,0-12.552-39.821Z" transform="translate(-313.272 -238.817)" fill="#f36928"/>
</svg>
