<svg id="Component_6_1" data-name="Component 6 – 1" xmlns="http://www.w3.org/2000/svg" width="408.129" height="390.42" viewBox="0 0 408.129 390.42">
  <path id="Path_593" data-name="Path 593" d="M453.228,232.907a87.009,87.009,0,0,1-37.318,71.49,85.952,85.952,0,0,1-10.177,6.121c-1.171.6-2.351,1.172-3.552,1.712-1.082.5-2.171.961-3.275,1.4a87.435,87.435,0,0,1-43.236,5.768q-3.808-.451-7.518-1.239l-.323-.068a85.106,85.106,0,0,1-15.134-4.709,87.128,87.128,0,1,1,120.532-80.48Z" transform="translate(-278.958 -145.782)" fill="#fe9d6a"/>
  <path id="Path_594" data-name="Path 594" d="M402.022,237.588c-.075-.09-.158-.173-.24-.255a25.118,25.118,0,0,0-35.328-.36c-.052.045-.1.09-.143.135-.06.053-.113.105-.165.158a25.1,25.1,0,0,0-7.375,17.784v15.772a3.385,3.385,0,0,0,3.38,3.38h43.559a3.385,3.385,0,0,0,3.38-3.38V255.049A25.046,25.046,0,0,0,402.022,237.588Z" transform="translate(-298.83 -166.723)" fill="#2f2e41"/>
  <ellipse id="Ellipse_55" data-name="Ellipse 55" cx="18.446" cy="18.446" rx="18.446" ry="18.446" transform="translate(67.664 70.429)" fill="#ffb7b7"/>
  <path id="Path_595" data-name="Path 595" d="M406.368,255.209l-2.178-15.216a1.906,1.906,0,0,0-.669-1.194,1.973,1.973,0,0,0-.4-.248,38.089,38.089,0,0,0-33.616-.015,1.838,1.838,0,0,0-.413.263c-.045.038-.09.083-.135.128a1.9,1.9,0,0,0-.526,1.134L366.977,255.3a1.882,1.882,0,0,0,.481,1.442,1.86,1.86,0,0,0,1.081.586,1.376,1.376,0,0,0,.308.03h3.695a1.894,1.894,0,0,0,1.7-1.081l1.6-3.425a1.122,1.122,0,0,1,2.133.338l.315,2.523a1.886,1.886,0,0,0,1.863,1.645h24.356a1.805,1.805,0,0,0,.909-.24,1.9,1.9,0,0,0,.511-.406A1.882,1.882,0,0,0,406.368,255.209Z" transform="translate(-300.869 -167.904)" fill="#2f2e41"/>
  <path id="Path_596" data-name="Path 596" d="M449.039,330.9l5.227,17.5a85.954,85.954,0,0,1-10.177,6.121c-1.171.6-2.351,1.172-3.552,1.712l-5.415-23.214-2.1-9,13.518-1.5Z" transform="translate(-317.316 -189.783)" fill="#ffb7b7"/>
  <path id="Path_597" data-name="Path 597" d="M366.289,329.81l-.451,23.642-.2,10.462a85.1,85.1,0,0,1-15.133-4.709l1.8-22.4.451-5.648Z" transform="translate(-296.772 -191.6)" fill="#ffb7b7"/>
  <path id="Path_598" data-name="Path 598" d="M427.939,325.459l-13.579,2.035.165,2.231,1.637,22.471a87.435,87.435,0,0,1-43.236,5.768q-3.808-.451-7.518-1.239c1.112-4.671,2.073-8.877.886-9.7a9,9,0,0,1-1.014-.826c-5.535-5.28-3.492-17.2-3.492-17.2l-10.041.556-3.477.2s1.5-24.033,8.261-24.033h8.261l39.8-3.755s11.265-3.755,14.27,1.5c1.577,2.756,4.386,8.6,6.707,13.541,2.1,4.491,3.808,8.239,3.808,8.239Z" transform="translate(-296.215 -184.343)" fill="#f36928"/>
  <path id="Path_599" data-name="Path 599" d="M863.231,233.868a87,87,0,0,1-36.713,70.11c-.2.135-.4.278-.6.421s-.428.3-.646.443q-1.893,1.307-3.86,2.5-2.771,1.69-5.67,3.177c-.06.03-.128.06-.188.09q-1.667.856-3.364,1.622c-.038.015-.068.03-.105.045-.263.12-.541.248-.811.36-2.1.931-4.236,1.78-6.414,2.531q-2.783.98-5.648,1.757a85.414,85.414,0,0,1-11.9,2.388,86.813,86.813,0,0,1-10.334.706c-.286.008-.571.008-.856.008-1.885,0-3.763-.06-5.618-.18-1.622-.105-3.229-.248-4.822-.443-2.456-.293-4.882-.684-7.27-1.194-.1-.015-.21-.038-.315-.06-.083-.015-.173-.038-.255-.053-2.4-.5-4.769-1.119-7.09-1.825q-3.278-.991-6.437-2.238c-.54-.21-1.074-.421-1.607-.646-1.329-.556-2.643-1.134-3.935-1.757-.375-.173-.743-.353-1.111-.533-1.247-.608-2.478-1.247-3.68-1.923q-2.174-1.205-4.273-2.531c-1.765-1.112-3.493-2.283-5.167-3.522A87.123,87.123,0,0,1,777.356,145.8C825.127,146.462,863.746,186.1,863.231,233.868Z" transform="translate(-455.106 -144.234)" fill="#fe9d6a"/>
  <path id="Path_600" data-name="Path 600" d="M778.31,357.914c-2.4-.5-4.769-1.119-7.09-1.825l7.968-49.41,8.254-.255,14.968-.473,7.676-.24s5.445,23.928,9.6,51.032a85.414,85.414,0,0,1-11.9,2.388,86.829,86.829,0,0,1-10.334.706c-.286.008-.571.008-.856.008-1.885,0-3.762-.06-5.618-.18-1.622-.105-3.229-.248-4.822-.443-2.456-.293-4.882-.683-7.27-1.194-.1-.015-.21-.038-.315-.06C778.482,357.951,778.392,357.929,778.31,357.914Z" transform="translate(-475.579 -184.051)" fill="#cbcbcb"/>
  <path id="Path_601" data-name="Path 601" d="M774.322,357.867c-.1-.015-.21-.038-.315-.06-.083-.015-.173-.038-.255-.053-2.4-.5-4.769-1.119-7.09-1.825q-3.279-.991-6.437-2.238c-.541-.21-1.074-.421-1.607-.646-1.329-.556-2.643-1.134-3.935-1.757-.376-.173-.743-.353-1.112-.533l-.661-37,20.278-8.689s.068.541,9.7,1.194C784.716,312.242,774.322,357.867,774.322,357.867Z" transform="translate(-471.019 -183.891)" fill="#f36928"/>
  <path id="Path_602" data-name="Path 602" d="M848,311.37l-3.823,20.09.36,18.167q-1.667.856-3.364,1.622c-.038.015-.068.03-.105.045-.263.12-.541.248-.811.361-2.1.931-4.236,1.78-6.414,2.531q-2.783.98-5.648,1.757a85.4,85.4,0,0,1-11.9,2.388,86.8,86.8,0,0,1-10.334.706l-.4-32.2c-.841-10.379,1.945-17.244,5.362-21.69,18.212-2.433,17.807-2.651,17.807-2.651l19.309,8.689Z" transform="translate(-484.091 -183.251)" fill="#f36928"/>
  <path id="Path_603" data-name="Path 603" d="M759.182,319.539l-1.374,37.033c-.541-.21-1.074-.421-1.607-.646-1.329-.556-2.643-1.134-3.935-1.757-.376-.173-.743-.353-1.111-.533-1.247-.608-2.478-1.247-3.68-1.923q-2.174-1.205-4.273-2.531l7.293-32.542Z" transform="translate(-468.601 -186.772)" fill="#f36928"/>
  <path id="Path_604" data-name="Path 604" d="M866.869,345.893c-.2.135-.4.278-.6.421s-.428.3-.646.443q-1.893,1.307-3.86,2.5-2.771,1.69-5.671,3.177c-.06.03-.128.06-.188.09q-1.717.882-3.467,1.669h0l-1.375-37.161,8.307-2.764.383-.128Z" transform="translate(-495.457 -186.15)" fill="#f36928"/>
  <ellipse id="Ellipse_56" data-name="Ellipse 56" cx="21.481" cy="21.426" rx="21.481" ry="21.426" transform="translate(294.576 102.285) rotate(-73.66)" fill="#9f616a"/>
  <path id="Path_605" data-name="Path 605" d="M775.562,257.239v-8.36s-6.742-7.94.674-9.94c0,0,2.022-20,19.551-10.667,0,0,24.27-4,21.573,10,0,0,6.068-3.655,4.045,5.679l-3.912,15.036s1.889-9.932-4.178-11.265l-3.371-2s-9.438,9.334-23.6-2c0,0-6.067-1.448-5.393,4.552S775.562,257.239,775.562,257.239Z" transform="translate(-475.961 -164.152)" fill="#2f2e41"/>
  <path id="Path_606" data-name="Path 606" d="M658.23,582.906a87.009,87.009,0,0,1-37.318,71.49c-.21.15-.428.3-.646.443q-1.893,1.307-3.86,2.5-2.771,1.69-5.67,3.177c-1.171.6-2.351,1.172-3.552,1.712-.3.135-.608.278-.916.406-2.1.931-4.236,1.78-6.414,2.531a85.767,85.767,0,0,1-17.552,4.146,87.372,87.372,0,0,1-11.19.713c-1.885,0-3.763-.06-5.618-.18-1.622-.105-3.229-.248-4.822-.443q-3.842-.462-7.585-1.254c-.082-.015-.173-.037-.255-.052a85.107,85.107,0,0,1-15.133-4.709c-1.329-.556-2.643-1.134-3.935-1.758q-2.445-1.149-4.791-2.456A87.126,87.126,0,1,1,658.23,582.906Z" transform="translate(-371.048 -299.447)" fill="#fe9d6a"/>
  <ellipse id="Ellipse_57" data-name="Ellipse 57" cx="19.454" cy="19.454" rx="19.454" ry="19.454" transform="translate(178.217 266.022)" fill="#ffb8b8"/>
  <path id="Path_607" data-name="Path 607" d="M583.585,707.084q-3.842-.462-7.585-1.254l2.366-53.233.338-.353,4.844-5.114h15.4l5.685,5.505.481.473,12.159,11.648,5.49,38.092a85.774,85.774,0,0,1-17.552,4.146,87.336,87.336,0,0,1-11.19.713c-1.885,0-3.762-.06-5.618-.18C586.785,707.422,585.177,707.28,583.585,707.084Z" transform="translate(-393.961 -337.129)" fill="#cbcbcb"/>
  <path id="Path_608" data-name="Path 608" d="M548.594,700.922q-2.445-1.149-4.791-2.456c-.158-14.42-.263-24-.263-24l1.832-1.119a.655.655,0,0,1,.068-.03l20.8-12.632,4.363-7.09.023.255,1.284,14.945a260.412,260.412,0,0,1,8.419,40.338c-1.622-.105-3.229-.248-4.821-.443-2.561-.308-5.092-.721-7.585-1.254-.083-.015-.173-.037-.255-.052a85.113,85.113,0,0,1-15.133-4.709C551.2,702.124,549.886,701.546,548.594,700.922Z" transform="translate(-385.88 -338.74)" fill="#f36928"/>
  <path id="Path_609" data-name="Path 609" d="M631.847,704.46a85.767,85.767,0,0,1-17.552,4.146,68.54,68.54,0,0,1-.909-14.683c1.622-25.933-2.118-40.323-.5-40.323l.826.646,10.207,8.066,13.435,4.927h.008l9.245,3.387,1.63.6V672c.007,2.674.022,12.031.158,24.634q-2.771,1.69-5.67,3.177c-1.171.6-2.351,1.172-3.552,1.712-.3.135-.608.278-.916.406C636.166,702.86,634.025,703.709,631.847,704.46Z" transform="translate(-403.042 -338.74)" fill="#f36928"/>
  <path id="Path_610" data-name="Path 610" d="M570.651,611.428s1.653-2.9,1.269-12.6,14.382-4.212,26.72-5.138,9.727,16.189,9.727,16.189.89-1.017,2.8-9.277-2.421-16.491-2.421-16.491c-1.274-8.68-8.143-5.9-8.143-5.9,3.308,1.288,2.672,4.041,2.672,4.041-2.8-4.909-9.668-2.127-9.668-2.127-9.16-5.748-18.444,1.822-18.444,1.822-11.066,2.511-4.576,11.312-4.576,11.312C559.454,598.886,570.651,611.428,570.651,611.428Z" transform="translate(-391.385 -319.866)" fill="#2f2e41"/>
  <path id="Path_611" data-name="Path 611" d="M531.32,698.951c.286-6.6.413-10.86.263-11.453-.773-3.094,9.786-7.24,10.747-7.608a.583.583,0,0,1,.068-.03l2.148,1.149,1.006,26.451q-2.445-1.149-4.791-2.456A86.493,86.493,0,0,1,531.32,698.951Z" transform="translate(-382.836 -345.279)" fill="#f36928"/>
  <path id="Path_612" data-name="Path 612" d="M655.828,701.115q-2.771,1.69-5.67,3.177c-1.171.6-2.351,1.172-3.552,1.712-.3.135-.608.278-.916.406l-3.38-33.368,1.975-1.442s.18.045.5.12h.008c1.585.391,6.451,1.682,9.245,3.387a5.792,5.792,0,0,1,1.63,1.374,1.669,1.669,0,0,1,.383,1.187c-.09.871,1.412,9.133,3.635,20.946Q657.8,699.921,655.828,701.115Z" transform="translate(-410.47 -343.222)" fill="#f36928"/>
  <path id="Path_613" data-name="Path 613" d="M147.306,441.62H115V296.788h1.5v143.33h30.8Z" transform="translate(-69.647 -140.412)" fill="#f1f1f1"/>
  <path id="Path_614" data-name="Path 614" d="M516.3,441.175H483.992v-1.5h30.8V295h1.5Z" transform="translate(-161.516 -139.967)" fill="#f1f1f1"/>
  <ellipse id="Ellipse_58" data-name="Ellipse 58" cx="19.854" cy="19.854" rx="19.854" ry="19.854" transform="translate(301.157 152.875)" fill="#2f2e41"/>
  <path id="Path_615" data-name="Path 615" d="M521.511,233.53l-5.943-7.641,3.456-2.688,2.813,3.618,9.506-10.034,3.178,3.011Z" transform="translate(-202.391 -52.419)" fill="#fff"/>
  <ellipse id="Ellipse_59" data-name="Ellipse 59" cx="19.854" cy="19.854" rx="19.854" ry="19.854" transform="translate(67.296 152.875)" fill="#2f2e41"/>
  <path id="Path_616" data-name="Path 616" d="M111.511,235.593l-5.943-7.641,3.456-2.688,2.813,3.618,9.506-10.034,3.178,3.011Z" transform="translate(-26.252 -54.482)" fill="#fff"/>
  <ellipse id="Ellipse_60" data-name="Ellipse 60" cx="19.854" cy="19.854" rx="19.854" ry="19.854" transform="translate(180.21 350.712)" fill="#2f2e41"/>
  <path id="Path_617" data-name="Path 617" d="M316.511,587.593l-5.943-7.641,3.456-2.688,2.813,3.618,9.506-10.034,3.178,3.011Z" transform="translate(-118.339 -208.645)" fill="#fff"/>
</svg>
